<?xml version="1.0" encoding="UTF-8" standalone="no"?>
<!-- Created with Inkscape (http://www.inkscape.org/) -->

<svg
   width="155.20285mm"
   height="155.20285mm"
   viewBox="0 -24.97026 155.20285 155.20285"
   version="1.1"
   id="svg1"
   xml:space="preserve"
   xmlns="http://www.w3.org/2000/svg"
   xmlns:svg="http://www.w3.org/2000/svg"><defs
     id="defs1" /><g
     id="layer1"
     transform="translate(-27.408853,-58.097613)"><g
       id="g85"
       transform="translate(10.193443,-12.046802)"><path
         style="fill:#fefefe"
         d="m 105.18414,189.46878 c -1.15039,-0.0292 -5.02161,-0.19404 -5.841997,-0.24871 -2.941584,-0.19602 -6.162983,-0.51966 -8.001,-0.80384 -0.605366,-0.0936 -1.576916,-0.24144 -2.159,-0.32855 -3.03498,-0.4542 -6.526589,-1.28386 -10.032999,-2.384 -1.368282,-0.4293 -8.777793,-2.88531 -9.206235,-3.05156 -0.252157,-0.0978 -0.38118,-0.28925 -1.50286,-2.22937 -0.403837,-0.6985 -1.260999,-2.16535 -1.904803,-3.25966 -0.643805,-1.09432 -1.679639,-2.86024 -2.301853,-3.92428 -1.268443,-2.16913 -1.79549,-3.00735 -2.164063,-3.44172 -1.38374,-1.63078 -2.007553,-1.95689 -4.933518,-2.57912 -1.648582,-0.35058 -2.529209,-0.54881 -3.005667,-0.67656 -0.557218,-0.14942 -2.400033,-0.57478 -3.344333,-0.77195 -0.989668,-0.20665 -1.123335,-0.23637 -2.794,-0.62129 -0.8382,-0.19311 -1.676399,-0.38605 -1.862666,-0.42874 -0.186267,-0.0427 -0.624417,-0.1464 -0.973667,-0.23048 -2.955479,-0.71148 -3.720515,-0.15314 -5.998189,4.37756 -0.854254,1.69927 -1.740596,3.41564 -1.969647,3.81416 l -0.416458,0.72459 -1.078353,-0.35861 c -0.593093,-0.19724 -1.754638,-0.57773 -2.581209,-0.84552 l -1.502858,-0.48691 4.03e-4,-19.99096 c 4.21e-4,-20.86069 0.0038,-20.66286 -0.364408,-21.32152 -0.372302,-0.66598 -0.672663,-0.73403 -2.302947,-0.52177 -1.746071,0.22733 -2.070328,0.32388 -2.432753,0.7244 -0.568154,0.62788 -0.527546,-0.84985 -0.552021,20.088 -0.01775,15.18465 -0.044,19.11402 -0.127455,19.0822 -0.05781,-0.022 -2.019629,-0.68052 -4.359603,-1.46328 l -4.2545,-1.4232 v -6.76924 -6.76925 l 0.3175,0.0572 c 0.537748,0.0969 1.189932,0.19887 2.71338,0.42439 1.695524,0.25098 1.884609,0.22114 2.248211,-0.35485 0.404523,-0.6408 0.404175,-0.63435 0.376941,-7.00492 l -0.0257,-6.01133 -0.230179,-0.35395 c -0.126598,-0.19467 -0.336148,-0.45523 -0.465666,-0.57902 l -0.235488,-0.22508 -2.116667,0.0436 c -1.164167,0.024 -2.221442,0.0662 -2.3495,0.0938 l -0.232833,0.0503 v -10.86311 -10.86312 l 1.926166,-0.56037 c 1.944781,-0.56579 5.059511,-1.48335 6.5405,-1.92674 0.442383,-0.13244 1.547283,-0.45744 2.455333,-0.72221 0.90805,-0.26477 2.322896,-0.68734 3.144102,-0.93905 8.071348,-2.47397 8.783381,-2.05975 12.307783,7.15996 0.169109,0.44238 0.567193,1.47108 0.88463,2.286 0.606632,1.55733 1.198372,3.09004 2.516949,6.51933 1.096652,2.85212 1.545064,3.99924 2.333311,5.969 0.372694,0.93134 0.916428,2.34104 1.208297,3.13267 0.291869,0.79163 0.880784,2.33468 1.308701,3.429 0.427917,1.09432 0.928188,2.40877 1.111713,2.921 1.854847,5.17703 5.675065,9.22802 9.770846,10.36108 1.036127,0.28663 1.459085,0.35133 5.884333,0.90001 1.699683,0.21075 3.776133,0.47785 4.614333,0.59356 0.8382,0.11572 1.9431,0.26732 2.455333,0.33691 1.031069,0.14006 5.632392,0.70804 7.873999,0.97195 0.791634,0.0932 1.839384,0.22761 2.328334,0.29869 3.442727,0.50051 12.27422,1.42861 16.255997,1.70835 2.29619,0.16131 13.80022,0.21642 18.71133,0.0896 1.37372,-0.0355 4.23122,-0.10091 6.35,-0.14543 2.11879,-0.0445 4.34764,-0.10196 4.953,-0.12764 2.04945,-0.0869 2.96182,-0.13232 3.429,-0.1706 0.25612,-0.021 1.01812,-0.0602 1.69334,-0.0873 1.77695,-0.0711 4.23146,-0.19337 5.87002,-0.29246 0.78376,-0.0474 2.40301,-0.14278 3.59833,-0.21196 6.85094,-0.39647 11.32812,-0.7563 16.86298,-1.35527 3.55628,-0.38485 3.2982,-0.40505 3.3007,0.25831 0.002,0.42571 0.27801,0.98373 0.8994,1.8158 1.01761,1.36261 1.09815,1.61394 1.00643,3.14053 l -0.0605,1.00715 -0.30817,-0.0461 c -0.1695,-0.0254 -0.84157,0.0139 -1.49351,0.0873 -0.65193,0.0734 -1.83303,0.17284 -2.62466,0.22105 -1.90631,0.11608 -2.45269,0.28083 -2.74544,0.82785 -0.25961,0.48509 -0.49586,1.69123 -0.60233,3.07513 -0.0454,0.59061 -0.17971,1.86696 -0.29838,2.83634 -0.11868,0.96937 -0.24934,2.12445 -0.29035,2.56683 -0.041,0.44239 -0.13576,1.45219 -0.21055,2.24402 -0.31074,3.29009 0.20813,3.54598 5.92505,2.92208 0.88892,-0.097 0.98034,0.65361 0.33669,2.76456 -0.51395,1.68555 -1.14772,1.98198 -6.6706,3.11997 -1.23578,0.25463 -0.99075,0.31993 -2.60424,-0.69399 -1.55781,-0.97893 -1.46271,-0.89254 -1.39793,-1.26994 0.0306,-0.17803 0.0763,-0.45796 0.10173,-0.62206 l 0.0462,-0.29836 1.22204,-0.13069 c 1.98807,-0.2126 1.79291,0.50759 1.80338,-6.65503 l 0.008,-5.77378 -0.19282,-0.22417 c -0.19976,-0.23223 -0.35604,-0.25906 -0.93154,-0.15994 l -0.32003,0.0551 0.0447,-0.32706 c 0.79211,-5.79428 0.47908,-6.03533 -7.02465,-5.40946 -0.23283,0.0194 -0.95673,0.0586 -1.60867,0.087 -2.89516,0.12624 -7.90311,0.42108 -10.83733,0.63805 -0.60537,0.0448 -1.97697,0.12048 -3.048,0.16827 -1.07103,0.0478 -2.08068,0.10366 -2.24367,0.12417 -0.16298,0.0205 -0.98213,0.0611 -1.82033,0.0902 -3.33624,0.11582 -3.62131,0.43348 -4.02278,4.4827 -0.097,0.9779 -0.24928,2.44475 -0.3385,3.25967 -0.0892,0.81491 -0.24171,2.35796 -0.33887,3.429 -0.2032,2.23979 -0.61666,6.00432 -0.80901,7.366 -0.0724,0.51223 -0.21919,1.60748 -0.32628,2.43389 -0.21529,1.66138 -0.43915,2.29691 -0.99643,2.82881 -0.66417,0.63391 -0.88442,0.67745 -4.42879,0.87561 -0.8382,0.0469 -1.7526,0.1033 -2.032,0.12542 -0.2794,0.0221 -1.4986,0.0815 -2.70934,0.13185 -1.21073,0.0504 -2.90618,0.12113 -3.76766,0.1572 -1.54552,0.0647 -4.27905,0.0819 -6.01134,0.0379 z m 13.37734,-5.86273 c 0.34925,-0.0517 1.37795,-0.17098 2.28599,-0.26502 2.27111,-0.2352 2.47501,-0.28189 2.78814,-0.63853 0.59776,-0.68082 0.5562,-0.13281 0.5562,-7.33289 v -6.49247 l -0.254,-0.26755 c -0.1397,-0.14714 -0.54389,-0.44498 -0.89819,-0.66185 -0.35431,-0.21688 -0.79861,-0.50192 -0.98733,-0.63344 -0.47298,-0.32959 -1.07022,-0.39885 -2.60181,-0.30173 -0.6985,0.0443 -3.04615,0.12992 -5.217,0.19027 l -3.94699,0.10973 -0.37101,0.21871 c -1.26054,0.74308 -1.15734,0.23036 -1.89613,9.42014 -0.0711,0.88477 -0.1885,2.19922 -0.26084,2.921 -0.26181,2.61247 0.31544,3.62848 2.16697,3.81405 0.94353,0.0946 7.89128,0.0299 8.636,-0.0804 z m -77.496679,-38.4526 c 0.343609,-0.13019 0.605231,-0.4004 0.855299,-0.88336 l 0.219193,-0.42333 0.0053,-7.06967 0.0053,-7.06967 -0.254,-0.50718 c -0.482034,-0.96253 -0.70694,-0.99275 -3.894667,-0.52329 -3.700303,0.54495 -3.471799,-0.0411 -3.405918,8.73514 0.04397,5.85731 0.04971,6.02349 0.224217,6.48599 0.222658,0.59013 0.753185,1.17194 1.08281,1.18748 0.129924,0.006 0.674375,0.0376 1.209891,0.07 1.605253,0.0971 3.693745,0.096 3.952655,-0.002 z m 101.034009,-0.36817 c -0.20955,-0.0596 -1.04775,-0.28909 -1.86267,-0.50995 -0.81492,-0.22087 -2.26272,-0.62235 -3.21733,-0.89218 -1.6688,-0.4717 -2.47026,-0.68947 -5.334,-1.4493 -0.72179,-0.19151 -2.43629,-0.66409 -3.81,-1.05018 -1.37372,-0.38609 -3.10727,-0.86191 -3.85234,-1.05739 -0.74506,-0.19547 -1.86901,-0.50159 -2.49766,-0.68027 -3.46447,-0.98469 -6.16799,-1.73667 -7.747,-2.15482 -4.56302,-1.20837 -5.16318,-1.43221 -6.27706,-2.34106 -1.05066,-0.85729 -1.29372,-1.24978 -1.72383,-2.78371 -0.15016,-0.53551 -0.40681,-1.43086 -0.57033,-1.98966 -0.31299,-1.06953 -0.32879,-1.12599 -0.61628,-2.20134 -0.0996,-0.37253 -0.28791,-1.00118 -0.41847,-1.397 -0.13055,-0.39581 -0.3992,-1.25306 -0.59699,-1.905 -0.43292,-1.42695 -1.67119,-5.14137 -2.35681,-7.06966 -1.17809,-3.31334 -1.562423,-4.36546 -1.623716,-4.445 -0.03588,-0.0466 -0.104461,-0.21802 -0.152395,-0.381 -0.0862,-0.29309 -0.910546,-2.41779 -1.478213,-3.81 -1.621444,-3.97661 -2.735155,-6.59878 -3.721894,-8.763001 -0.254775,-0.5588 -0.568508,-1.26365 -0.697184,-1.566334 -0.128676,-0.302683 -0.762827,-1.629099 -1.409225,-2.94759 -0.646399,-1.318491 -1.17527,-2.428251 -1.17527,-2.466133 0,-0.03788 -0.05341,-0.113204 -0.118693,-0.167382 -0.06528,-0.05418 -0.143025,-0.195455 -0.172765,-0.313948 -0.02974,-0.118493 -0.09116,-0.259805 -0.1365,-0.314027 -0.160357,-0.191794 -0.469344,-0.697111 -0.707423,-1.156919 -0.132611,-0.256117 -0.550526,-0.971807 -0.928698,-1.590423 -0.378173,-0.618616 -0.846781,-1.388759 -1.041351,-1.711429 -0.441085,-0.731483 -1.711073,-2.69487 -1.858515,-2.873242 -0.06027,-0.07291 -0.292015,-0.403581 -0.514986,-0.734814 -0.774103,-1.149963 -1.423314,-2.047829 -2.389107,-3.304164 -0.974066,-1.267097 -3.423989,-3.882791 -4.634145,-4.947708 -1.251844,-1.101601 -1.56226,-1.349322 -2.399149,-1.914582 -0.66198,-0.447122 -1.810483,-1.126971 -1.903848,-1.126971 -0.02968,0 -0.251637,-0.09179 -0.493228,-0.203983 -1.782579,-0.827799 -3.586381,-1.323697 -5.516749,-1.516652 l -1.018508,-0.101808 0.677333,-0.186412 c 2.094112,-0.57633 7.152359,-0.7659 8.509,-0.318896 0.846279,0.278844 3.519469,1.790752 3.81,2.154867 0.02328,0.02918 0.385233,0.336647 0.804333,0.683259 0.797485,0.659552 1.599893,1.44465 2.243666,2.195268 0.20955,0.244328 0.4953,0.569736 0.635,0.723129 0.1397,0.153393 0.5207,0.616246 0.846667,1.028562 0.325967,0.412317 0.621242,0.762366 0.656167,0.777888 0.03493,0.01552 0.0635,0.06477 0.0635,0.109449 0,0.0754 0.642153,0.995283 0.760906,1.089996 0.02919,0.02328 0.279507,0.385045 0.556253,0.803915 0.276745,0.418871 0.569849,0.83563 0.651341,0.926132 0.08149,0.0905 0.148166,0.21134 0.148166,0.268529 0,0.05719 0.03204,0.116679 0.07119,0.132201 0.07974,0.03161 0.690808,0.886721 0.690808,0.966693 0,0.02816 0.16678,0.304779 0.370623,0.614701 0.559334,0.850413 2.26678,3.617321 2.642523,4.282197 0.538662,0.953161 0.578372,1.018107 0.776572,1.270077 0.104288,0.132581 0.189615,0.287931 0.189615,0.345221 0,0.05729 0.06978,0.195027 0.155073,0.306082 0.08529,0.111055 0.247215,0.373368 0.359833,0.582918 0.112619,0.20955 0.251104,0.430064 0.307745,0.490032 0.05664,0.05997 0.193707,0.288567 0.30459,0.508 0.178374,0.352994 0.652427,1.218425 1.308411,2.388634 1.080875,1.928173 3.67152,7.157518 4.592899,9.270998 0.56844,1.3039 0.794338,1.80611 1.149688,2.55595 0.15864,0.33473 0.28843,0.65271 0.28843,0.7066 0,0.0539 0.0543,0.19912 0.12065,0.32272 0.0663,0.1236 0.20887,0.45333 0.3167,0.73273 0.10784,0.2794 0.21547,0.52705 0.23919,0.55033 0.0483,0.0474 0.14451,0.29186 0.54985,1.397 0.24025,0.65504 0.54952,1.421 0.9059,2.24367 0.15723,0.36293 0.293,0.71932 1.01603,2.667 0.1383,0.37253 0.30565,0.80245 0.3719,0.95537 0.0662,0.15293 0.12045,0.32131 0.12045,0.37418 0,0.0529 0.13066,0.46116 0.29037,0.9073 0.1597,0.44613 0.48116,1.34455 0.71434,1.99648 0.51491,1.43957 1.29609,3.90162 1.96106,6.18067 0.90604,3.1053 1.32757,4.05185 2.08809,4.68881 0.41594,0.34836 0.45577,0.3788 0.70567,0.53927 0.22097,0.14189 4.30802,1.24223 5.24713,1.41266 0.30269,0.0549 1.46474,0.32481 2.58234,0.59974 1.1176,0.27492 2.78223,0.6721 3.69919,0.88262 0.91696,0.21052 2.11711,0.50176 2.667,0.6472 1.06044,0.28047 1.75325,0.44414 2.65462,0.62712 0.30478,0.0619 1.35253,0.30783 2.32833,0.54658 2.83534,0.69371 3.0792,0.75167 4.06019,0.96508 0.51223,0.11143 1.67428,0.38235 2.58233,0.60203 0.90805,0.21969 1.82245,0.43037 2.032,0.46819 0.94678,0.17086 2.2092,0.42237 2.75066,0.548 1.36072,0.31572 2.18441,0.12757 9.01801,-2.06 1.55826,-0.49883 4.7355,-1.6032 6.477,-2.25132 0.8382,-0.31194 1.63496,-0.60811 1.77058,-0.65815 0.13562,-0.05 0.53567,-0.23207 0.889,-0.40451 0.35333,-0.17244 0.73733,-0.34349 0.85334,-0.38011 1.33611,-0.42178 1.81972,-1.79639 1.19145,-3.38654 -0.0368,-0.0931 -0.13312,-0.37889 -0.21405,-0.635 -0.0809,-0.25612 -0.20043,-0.58573 -0.26557,-0.73247 -0.0651,-0.14673 -0.11842,-0.30586 -0.11842,-0.3536 0,-0.10228 -1.66865,-5.12115 -1.9894,-5.9836 -0.12122,-0.32597 -0.25603,-0.70697 -0.29956,-0.84667 -0.0738,-0.23667 -0.18131,-0.49594 -0.33482,-0.80711 -0.0352,-0.0714 -0.0908,-0.25191 -0.12364,-0.40119 -0.0328,-0.14928 -0.0948,-0.29316 -0.13776,-0.31972 -0.043,-0.0266 -0.0781,-0.1072 -0.0781,-0.17918 0,-0.072 -0.0952,-0.32051 -0.21167,-0.55229 -0.11642,-0.23178 -0.21167,-0.4568 -0.21167,-0.50005 0,-0.0433 -0.0762,-0.24967 -0.16933,-0.45871 -0.0931,-0.20904 -0.24701,-0.55426 -0.34195,-0.76715 -0.0949,-0.21288 -0.28492,-0.66977 -0.42218,-1.0153 -0.13726,-0.34553 -0.28218,-0.69523 -0.32203,-0.7771 -0.1437,-0.29518 -0.42695,-0.9177 -0.56855,-1.24953 -0.0795,-0.18627 -0.4777,-1.02447 -0.88492,-1.86267 -1.36334,-2.80626 -1.60904,-3.32754 -1.60904,-3.41379 0,-0.0472 -0.0292,-0.0985 -0.0648,-0.11398 -0.0356,-0.0155 -0.25906,-0.4094 -0.49645,-0.87528 -0.23739,-0.46588 -0.52919,-0.99083 -0.64844,-1.16656 -0.11925,-0.17572 -0.30279,-0.4994 -0.40788,-0.71928 -0.10508,-0.21987 -0.21273,-0.41882 -0.23922,-0.4421 -0.0265,-0.0233 -0.17242,-0.28999 -0.32427,-0.59267 -0.67767,-1.35079 -1.70694,-3.086006 -2.82653,-4.765159 -0.17951,-0.269221 -0.32638,-0.508642 -0.32638,-0.532048 0,-0.06605 -1.2733,-1.931053 -1.38368,-2.026677 -0.0539,-0.04669 -0.17228,-0.218136 -0.26308,-0.381 -0.0908,-0.162865 -0.19577,-0.334217 -0.23325,-0.380784 -0.17688,-0.219762 -1.07238,-1.467831 -1.21497,-1.693333 -0.0883,-0.1397 -0.20916,-0.284468 -0.26848,-0.321707 -0.0593,-0.03724 -0.10848,-0.113439 -0.10922,-0.169333 -7.5e-4,-0.0559 -0.11408,-0.234977 -0.25185,-0.39796 -0.55436,-0.655817 -0.68991,-0.825644 -1.06434,-1.3335 -0.21458,-0.291042 -0.44089,-0.529167 -0.50291,-0.529167 -0.062,0 -0.12547,-0.03415 -0.14099,-0.07588 -0.16411,-0.44123 -4.20471,-4.450554 -5.70168,-5.657548 -1.69033,-1.362894 -4.19538,-3.114708 -5.43783,-3.802749 -0.315,-0.174434 -0.60039,-0.362107 -0.63421,-0.417052 -0.0338,-0.05494 -0.18622,-0.150357 -0.33867,-0.212028 -0.15244,-0.06167 -0.29622,-0.13441 -0.3195,-0.161642 -0.1,-0.116917 -1.58721,-0.925687 -1.79997,-0.978834 -0.1285,-0.0321 -0.25454,-0.09219 -0.28009,-0.133532 -0.0548,-0.08863 -1.25048,-0.657078 -1.85694,-0.882808 -0.23284,-0.08666 -0.44239,-0.180915 -0.46567,-0.209451 -0.0233,-0.02854 -0.17568,-0.09328 -0.33867,-0.14387 -0.92978,-0.288618 0.81857,-0.02357 2.35948,0.357687 1.1191,0.276894 4.69129,1.557322 4.83719,1.733856 0.0233,0.02817 0.34713,0.200779 0.71967,0.38357 0.37253,0.182792 0.69638,0.356765 0.71966,0.386608 0.0233,0.02984 0.21294,0.140776 0.42144,0.24652 0.36661,0.18592 1.01597,0.585668 1.10256,0.678735 0.0233,0.02502 0.34714,0.272806 0.71967,0.550626 2.08231,1.552898 5.77078,4.985035 7.40833,6.893488 0.25612,0.298486 0.56607,0.64715 0.68878,0.774808 0.12271,0.127659 0.27927,0.31228 0.3479,0.410269 0.0686,0.09799 0.25535,0.320227 0.41493,0.493861 0.34426,0.374585 1.77308,2.303483 2.24078,3.025032 0.1811,0.2794 0.3718,0.5461 0.42376,0.592667 0.052,0.04657 0.45082,0.618066 0.88635,1.27 0.43552,0.651933 0.83116,1.231636 0.87918,1.288228 0.17428,0.205368 0.25969,0.330931 0.42125,0.61931 0.0905,0.161587 0.31035,0.503345 0.48849,0.759461 0.83578,1.201626 2.71204,4.285976 3.34775,5.503336 0.2067,0.39582 0.44364,0.83396 0.52653,0.97366 0.25276,0.426 0.59028,1.05082 1.1663,2.159 0.30256,0.58209 0.63638,1.21074 0.74182,1.397 0.10544,0.18627 0.4778,0.94827 0.82747,1.69334 0.34967,0.74506 0.92158,1.94521 1.27093,2.667 0.34934,0.72178 0.7757,1.67428 0.94746,2.11666 0.17177,0.44239 0.42641,1.09009 0.56587,1.43934 0.13947,0.34925 0.48283,1.26365 0.76302,2.032 0.2802,0.76835 0.65678,1.79705 0.83686,2.286 0.18007,0.48895 0.48547,1.3843 0.67866,1.98966 0.19318,0.60537 0.55978,1.71027 0.81465,2.45534 1.20273,3.51588 1.45527,4.44089 1.89372,6.93627 0.54217,3.08573 -0.14047,4.37575 -2.93104,5.53899 -0.32363,0.1349 -1.31232,0.59757 -2.19708,1.02814 -2.04142,0.99347 -2.51884,1.21442 -4.48734,2.07673 -0.88476,0.38758 -2.18936,0.97275 -2.8991,1.30036 -0.70974,0.32762 -1.73844,0.78363 -2.286,1.01335 -0.54756,0.22972 -1.50991,0.63634 -2.13856,0.90361 -2.0781,0.88347 -2.32103,0.97992 -3.20796,1.27361 -0.94196,0.31191 -1.27203,0.34214 -1.87204,0.17146 z"
         id="path87" /><path
         style="fill:#d82427"
         d="m 106.78362,160.36167 c -0.0206,-0.0206 -1.22915,-0.0803 -2.68572,-0.13274 -1.45656,-0.0524 -2.7129,-0.10761 -2.79186,-0.12261 -0.079,-0.015 -0.60076,-0.0521 -1.15956,-0.0824 -1.119977,-0.0607 -2.470865,-0.17327 -3.64067,-0.30331 -1.106859,-0.12304 -3.616523,-0.41268 -4.402667,-0.50811 -0.907648,-0.11018 -3.335517,-0.38423 -4.487333,-0.5065 -0.512233,-0.0544 -1.255183,-0.15394 -1.651,-0.22123 -0.395816,-0.0673 -1.043516,-0.15838 -1.439333,-0.20241 -0.92078,-0.10242 -3.343506,-0.39096 -4.204472,-0.50074 -1.97797,-0.25222 -2.773283,-0.35053 -3.500194,-0.43264 -0.442384,-0.05 -1.032933,-0.12488 -1.312333,-0.16646 -0.2794,-0.0416 -0.86995,-0.11857 -1.312334,-0.17111 -0.442383,-0.0525 -0.880533,-0.11002 -0.973666,-0.12774 -0.196541,-0.0374 -1.708422,-0.24874 -2.751667,-0.38465 -0.395816,-0.0516 -1.081616,-0.14486 -1.524,-0.20731 -0.442383,-0.0625 -1.051983,-0.13683 -1.354666,-0.16528 -7.866457,-0.73941 -11.667251,-3.58862 -14.517345,-10.8827 -1.900117,-4.86287 -2.27303,-5.84333 -2.721102,-7.15434 -0.159154,-0.46566 -0.476923,-1.28481 -0.706152,-1.82033 -0.22923,-0.53552 -0.516396,-1.24037 -0.638146,-1.56633 -0.121751,-0.32597 -0.273922,-0.72602 -0.338159,-0.889 -0.06424,-0.16299 -0.350477,-0.90594 -0.636089,-1.651 -0.285612,-0.74507 -0.780844,-2.02142 -1.100516,-2.83634 -0.878703,-2.24001 -1.724608,-4.4409 -2.033835,-5.29166 -0.15233,-0.4191 -0.460193,-1.20015 -0.684139,-1.73567 -0.223946,-0.53552 -0.546019,-1.35467 -0.715718,-1.82033 -0.169698,-0.46567 -0.51051,-1.36102 -0.757359,-1.98967 -0.246848,-0.62865 -0.550365,-1.4097 -0.674482,-1.73567 -1.357827,-3.56605 -4.073565,-5.17207 -7.168728,-4.23942 -0.529776,0.15964 -1.210878,0.35344 -1.513562,0.43066 -0.499256,0.12738 -1.358169,0.3903 -2.624666,0.80343 -0.256117,0.0835 -0.980017,0.29138 -1.608667,0.46184 -0.62865,0.17047 -1.7907,0.51341 -2.582333,0.7621 -0.791633,0.24868 -1.706033,0.52994 -2.032,0.62501 -0.325967,0.0951 -1.259417,0.37032 -2.074333,0.61167 -1.653232,0.48961 -5.195357,1.51831 -5.228167,1.51835 -0.01164,2e-5 -0.01836,-4.39099 -0.01493,-9.7578 l 0.0062,-9.757835 0.767556,-0.381 c 0.422156,-0.20955 1.476625,-0.795024 2.343265,-1.301055 0.866639,-0.50603 2.147208,-1.2347 2.845707,-1.619267 0.6985,-0.384567 1.89865,-1.069865 2.667,-1.522885 0.76835,-0.45302 1.8542,-1.07198 2.413,-1.375465 1.493195,-0.810958 3.487606,-1.94271 6.585265,-3.736884 0.734763,-0.425577 1.354645,-0.773776 1.377516,-0.773776 0.02287,0 0.189328,-0.09327 0.369904,-0.20726 0.180576,-0.113993 0.932294,-0.538405 1.670484,-0.94314 0.73819,-0.404734 1.551714,-0.870451 1.807831,-1.034927 0.256116,-0.164477 0.865716,-0.515545 1.354666,-0.780151 1.64082,-0.887969 2.434002,-1.335775 3.527383,-1.991453 0.597823,-0.358501 1.4108,-0.824239 1.806617,-1.034973 1.067159,-0.568157 2.138559,-1.171024 3.090333,-1.7389 0.796602,-0.475292 1.588716,-0.926984 2.667,-1.520818 0.256116,-0.141049 0.903816,-0.510263 1.439333,-0.820476 1.094217,-0.633856 2.652775,-1.513421 3.979333,-2.245717 0.48895,-0.269914 1.0795,-0.612569 1.312333,-0.761455 3.574816,-2.285928 6.903772,-3.537423 8.932333,-3.358041 5.910481,0.522653 11.066372,4.270656 16.684961,12.1289 0.50507,0.706398 0.838348,1.19668 1.202109,1.768411 0.162953,0.256116 0.629682,0.980016 1.037175,1.608666 0.927849,1.431416 2.073087,3.271908 2.073087,3.331622 0,0.02482 0.29169,0.532034 0.6482,1.127143 0.356509,0.595109 0.910421,1.616516 1.230915,2.269792 0.320493,0.653277 0.619572,1.254283 0.664618,1.33557 0.149281,0.269377 1.410477,2.81021 1.544644,3.111873 0.177233,0.398491 1.121768,2.606321 1.430746,3.344331 0.13647,0.32597 0.507361,1.14512 0.824203,1.82034 0.316842,0.67521 0.701742,1.55151 0.855334,1.94733 0.153592,0.39581 0.306261,0.75776 0.339265,0.80433 0.033,0.0466 0.108975,0.23707 0.168824,0.42333 0.131576,0.4095 1.044331,2.68585 1.476784,3.683 0.17166,0.39582 0.427322,1.02447 0.568138,1.397 0.140815,0.37254 0.353016,0.92499 0.471558,1.22767 0.118542,0.30268 0.436538,1.17898 0.706663,1.94733 0.27012,0.76835 0.64743,1.8161 0.83846,2.32834 0.71812,1.92556 1.17364,3.26509 2.02983,5.969 0.33177,1.04775 0.79044,2.49555 1.01927,3.21733 0.22883,0.72178 0.49625,1.61713 0.59426,1.98967 0.098,0.37253 0.24775,0.90593 0.33274,1.18533 0.085,0.2794 0.27707,0.9652 0.42686,1.524 0.73394,2.73799 0.95761,3.18691 2.0181,4.05042 0.94108,0.76628 1.18085,0.89171 2.46281,1.2884 0.67876,0.21003 1.59607,0.49357 2.03845,0.63008 0.44238,0.13652 1.43298,0.40505 2.20133,0.59674 1.31562,0.32823 3.07682,0.80914 4.318,1.17906 0.30269,0.0902 1.00754,0.28364 1.56634,0.42984 0.5588,0.1462 1.30174,0.35598 1.65099,0.46617 0.34925,0.11019 1.22555,0.35315 1.94734,0.53991 1.24731,0.32275 2.6721,0.71174 3.59833,0.98241 0.23283,0.068 0.92451,0.25633 1.53705,0.41842 0.61254,0.16209 1.28169,0.35174 1.48701,0.42145 0.20531,0.0697 0.61854,0.18309 0.91828,0.25197 0.48423,0.11127 2.01582,0.5159 4.01526,1.06078 0.37194,0.10136 1.11489,0.31749 1.651,0.4803 0.5361,0.16281 1.71768,0.48708 2.62573,0.72061 0.90805,0.23353 1.96959,0.51681 2.35898,0.62952 1.23747,0.35818 1.65412,0.26857 4.59129,-0.98747 0.9588,-0.41002 2.12085,-0.89627 2.58233,-1.08056 0.46149,-0.18429 1.1747,-0.49122 1.58492,-0.68206 0.41021,-0.19084 0.76217,-0.34699 0.78212,-0.34699 0.0199,0 0.61777,-0.26987 1.32849,-0.59972 0.71071,-0.32984 1.81194,-0.82408 2.44716,-1.09831 1.1298,-0.48774 1.85531,-0.82628 4.60238,-2.14758 0.74507,-0.35836 1.43087,-0.68404 1.524,-0.72373 2.61423,-1.11403 3.52217,-2.47363 3.09457,-4.63399 -0.0442,-0.22349 -0.18175,-0.97737 -0.30559,-1.67529 -0.27787,-1.56602 -0.59824,-2.82463 -1.05626,-4.14971 -0.19315,-0.5588 -0.56063,-1.6637 -0.81662,-2.45534 -0.47964,-1.48325 -1.30492,-3.86818 -1.90439,-5.50333 -0.18779,-0.51223 -0.44772,-1.23613 -0.57762,-1.60867 -0.41735,-1.19687 -1.1877,-3.10197 -1.71179,-4.23333 -0.84199,-1.81761 -3.19253,-6.53619 -3.77135,-7.5708 -0.29749,-0.53174 -0.67176,-1.22667 -0.83172,-1.5443 -0.81157,-1.61157 -3.48407,-5.855292 -5.53672,-8.791898 -0.37432,-0.535516 -0.89244,-1.293278 -1.15139,-1.683913 -0.69024,-1.041282 -1.85392,-2.586135 -2.48779,-3.302683 -2.4704,-2.792647 -3.27708,-3.647046 -4.63916,-4.913616 -1.69328,-1.574536 -1.33736,-1.63027 0.61383,-0.09612 2.28862,1.799456 6.10749,5.759213 8.26375,8.568611 0.34444,0.448769 0.9882,1.284111 1.43058,1.856316 2.41842,3.128129 5.01885,7.399923 7.16091,11.763403 0.7658,1.55998 1.50203,3.04588 1.63607,3.302 0.13403,0.25612 0.7271,1.68487 1.31792,3.175 0.59083,1.49013 1.18521,2.98202 1.32085,3.31531 0.33155,0.81469 1.00512,2.77772 1.43347,4.17769 0.19235,0.62865 0.46075,1.50495 0.59644,1.94733 0.57118,1.86216 0.67799,2.23407 0.92609,3.22466 0.14334,0.57228 0.37376,1.59533 0.51204,2.27343 0.13828,0.6781 0.36591,1.70916 0.50583,2.29125 0.41943,1.74484 0.5666,2.5053 0.80289,4.14866 0.12387,0.86149 0.26133,1.70671 0.30546,1.87828 0.12033,0.46781 0.49833,3.83488 0.58757,5.23372 0.0431,0.67522 0.12023,1.58962 0.17146,2.032 0.19233,1.66079 0.16647,8.33174 -0.0394,10.16 -0.0236,0.20955 -0.0655,0.8763 -0.0931,1.48167 -0.0892,1.95408 0.11253,1.77349 -2.27786,2.03941 -5.20815,0.57938 -9.58388,0.97388 -12.62297,1.13805 -0.88477,0.0478 -1.98967,0.12197 -2.45533,0.16485 -0.46567,0.0429 -1.57057,0.11915 -2.45534,0.16951 -0.88476,0.0504 -2.14206,0.12731 -2.794,0.171 -0.65193,0.0437 -1.71873,0.1028 -2.37066,0.13133 -0.65194,0.0285 -1.29964,0.0656 -1.43934,0.0824 -0.1397,0.0168 -0.95885,0.0533 -1.82033,0.0811 -0.86148,0.0278 -2.17593,0.0856 -2.921,0.12842 -3.40588,0.19562 -5.45814,0.25392 -12.99633,0.36919 -2.25848,0.0345 -4.9082,0.099 -5.88826,0.14327 -1.76605,0.0797 -10.051,0.11499 -10.12293,0.043 z m 23.95567,-3.75976 c 0.0333,-0.23529 -0.22872,-1.20219 -0.96714,-3.56882 -1.13137,-3.62601 -1.06702,-3.5564 -3.94753,-4.27076 -0.99118,-0.24581 -2.06885,-0.52686 -2.39481,-0.62456 -1.51951,-0.4554 -2.58334,-0.74501 -5.334,-1.4521 -4.3976,-1.13044 -6.47893,-1.68377 -6.8582,-1.82327 -0.4922,-0.18103 -3.33343,-0.88864 -3.56811,-0.88864 -0.1683,0 -0.19949,0.0429 -0.2002,0.27516 -0.002,0.52293 0.17861,2.81901 0.30736,3.91584 0.071,0.60536 0.16236,1.95791 0.20289,3.00566 0.10141,2.62118 0.26376,3.215 1.1292,4.13007 0.86568,0.91533 0.82427,0.90813 6.19306,1.07718 4.3244,0.13616 7.43628,0.24372 9.73666,0.33652 1.44357,0.0582 3.31047,0.10154 4.14867,0.0962 l 1.524,-0.01 z m 23.80552,-0.82015 c 0.44238,-0.0698 2.09973,-0.31412 3.683,-0.54287 8.11892,-1.17301 7.50174,-0.66122 7.66304,-6.35447 0.0429,-1.51341 0.11901,-3.25601 0.16917,-3.87244 0.14095,-1.73193 0.145,-1.7309 -2.05178,-0.52244 -1.41156,0.77651 -2.49149,1.30901 -3.19357,1.57472 -0.58914,0.22296 -2.79017,1.31356 -3.13861,1.55515 -0.28877,0.20023 -2.22052,1.17873 -2.3288,1.17963 -0.48511,0.004 -1.05893,1.02846 -1.30775,2.33473 -0.097,0.50911 -0.28821,1.49715 -0.42495,2.19565 -0.54108,2.76379 -0.56943,2.68905 0.93025,2.45234 z M 63.443478,128.1462 c 0.90805,-0.0917 2.58445,-0.24717 3.725333,-0.34545 2.534196,-0.21831 5.214476,-0.49826 5.380552,-0.56199 0.166857,-0.064 0.162784,-0.1043 -0.163884,-1.61995 -0.157666,-0.73153 -0.370018,-1.8063 -0.471894,-2.38839 -0.101876,-0.58208 -0.241468,-1.30598 -0.310205,-1.60866 -0.06874,-0.30269 -0.21795,-0.98849 -0.331585,-1.524 -0.113636,-0.53552 -0.26273,-1.22132 -0.331322,-1.524 -0.06859,-0.30269 -0.238534,-1.15994 -0.377651,-1.905 -0.139116,-0.74507 -0.352704,-1.81187 -0.474638,-2.37067 -0.214881,-0.98476 -0.287417,-1.35103 -0.586842,-2.96333 -0.354545,-1.9091 -0.585692,-3.03606 -0.807504,-3.937 -0.131845,-0.53552 -0.378872,-1.77377 -0.548949,-2.75167 -0.344312,-1.97971 -0.423199,-2.29299 -0.593877,-2.35849 -0.227508,-0.0873 -1.652108,0.35424 -5.519682,1.71077 -3.436854,1.20545 -3.234267,0.38055 -3.215678,13.09372 l 0.01349,9.22867 0.181871,0.33866 c 0.876005,1.63123 1.368078,1.79629 4.432462,1.48678 z m 25.174138,-1.53007 c 1.173658,-0.72873 2.076038,-2.60425 1.840042,-3.82436 -0.477548,-2.46896 -4.000875,-10.54158 -6.146002,-14.08168 -0.19752,-0.32597 -0.433863,-0.72602 -0.525208,-0.889 -1.930106,-3.44384 -4.620708,-7.04007 -5.586967,-7.4675 -0.532941,-0.23574 -1.774535,-0.17281 -3.53767,0.17932 -0.745067,0.1488 -1.945217,0.37981 -2.667,0.51335 -1.999719,0.36998 -1.935398,0.28249 -1.485132,2.02012 0.06997,0.27005 0.242082,1.17235 0.382461,2.00513 0.140378,0.83277 0.369296,1.97308 0.508708,2.53402 0.139411,0.56094 0.327223,1.41994 0.417361,1.90889 0.417986,2.26735 1.374698,6.88616 1.487281,7.18028 0.02329,0.0608 0.137552,0.67321 0.253926,1.36085 0.116374,0.68763 0.308096,1.66655 0.42605,2.17539 0.318716,1.37488 0.956146,4.62415 1.143105,5.82691 0.148476,0.95519 0.01899,0.89073 1.842389,0.91721 0.872035,0.0127 3.741544,0.004 6.376687,-0.0193 l 4.791169,-0.0423 z M 139.93981,89.821591 c -1.16685,-0.121891 -3.78022,-0.418734 -6.64634,-0.754934 -0.95461,-0.111978 -2.29567,-0.257692 -2.98013,-0.323809 l -1.24447,-0.120214 -0.70286,-0.546972 c -0.38658,-0.300835 -1.54107,-1.179991 -2.56554,-1.95368 -1.02446,-0.77369 -2.26271,-1.71665 -2.75166,-2.095468 -1.85749,-1.439104 -2.48094,-1.911239 -2.91662,-2.208732 -0.24726,-0.168837 -1.01615,-0.736166 -1.70864,-1.260732 -1.63934,-1.241804 -1.29315,-1.144476 -6.04274,-1.698871 -0.34925,-0.04077 -1.2827,-0.168704 -2.07433,-0.284307 -0.79164,-0.115603 -2.02989,-0.28638 -2.75167,-0.379505 -0.72178,-0.09313 -1.90583,-0.247009 -2.63122,-0.341963 -0.72539,-0.09495 -1.38384,-0.172644 -1.46323,-0.172644 -0.25272,0 -0.29218,0.329442 -0.1263,1.054244 0.0858,0.374782 0.21406,0.953934 0.28507,1.287003 0.071,0.33307 0.20675,0.82837 0.30162,1.100667 0.0949,0.272297 0.33938,1.142786 0.54335,1.934419 0.20398,0.791633 0.42996,1.629833 0.5022,1.862666 0.31271,1.007916 0.32726,1.002933 -2.09333,0.716877 -0.80107,-0.09467 -2.25659,-0.266635 -3.234494,-0.382149 -0.9779,-0.115514 -2.36855,-0.285632 -3.090333,-0.37804 -1.370791,-0.175499 -3.444661,-0.410617 -5.672666,-0.643119 -0.721784,-0.07532 -1.363965,-0.178752 -1.42707,-0.229847 -0.135173,-0.109447 -0.726629,-0.958059 -1.028264,-1.475336 -0.189904,-0.32567 -1.584153,-2.383438 -2.59597,-3.831385 -0.813284,-1.163838 -3.024429,-3.753649 -3.975799,-4.656667 -1.217716,-1.155827 -1.927666,-1.678605 -4.201912,-3.094115 -0.672933,-0.418839 -0.489023,-0.464684 1.009484,-0.25164 0.473808,0.06736 1.940658,0.25664 3.259667,0.420619 1.319008,0.163979 2.817297,0.371268 3.329531,0.460642 0.995903,0.173765 2.787848,0.451046 3.894666,0.60265 0.372533,0.05103 1.439333,0.202569 2.370667,0.336761 2.547916,0.367119 5.276108,0.746398 5.799666,0.806283 0.256117,0.02929 1.075267,0.14306 1.820333,0.252811 0.745067,0.109751 1.945214,0.279456 2.667004,0.377121 0.72178,0.09766 1.78858,0.251443 2.37066,0.341729 0.58209,0.09028 1.49649,0.225598 2.032,0.300694 0.53552,0.0751 1.44992,0.205474 2.032,0.289728 0.58209,0.08426 2.73474,0.385218 4.78367,0.668808 2.04893,0.283589 4.37303,0.609706 5.16467,0.724703 0.79163,0.114997 2.10608,0.28943 2.92099,0.387629 2.0883,0.251641 2.84021,0.40188 3.47134,0.693601 0.30268,0.139907 0.81944,0.361766 1.14836,0.49302 0.66323,0.264666 3.10574,1.501743 3.6353,1.841198 0.18627,0.119399 0.49107,0.320292 0.67734,0.446428 0.18626,0.126136 0.54821,0.338405 0.80433,0.471708 0.79611,0.414356 2.8253,1.839794 4.98494,3.501744 1.70296,1.310516 5.83728,5.421496 5.74269,5.710276 -0.043,0.131209 -0.37067,0.131229 -1.62596,1e-4 z"
         id="path86" /><path
         style="fill:#000000"
         d="m 98.760794,200.02885 c -0.389592,-0.19133 -0.819244,-0.43282 -0.954781,-0.53665 -0.849931,-0.6511 -2.063539,-1.71106 -3.708126,-3.23866 -0.352042,-0.327 -0.868677,-0.80164 -1.148077,-1.05476 -2.779542,-2.51811 -3.574964,-3.31445 -3.787285,-3.79165 -0.311258,-0.69958 -0.30147,-1.69545 0.0288,-2.93054 0.09885,-0.36967 -0.04915,-0.35453 1.345482,-0.13769 7.462124,1.16018 17.515193,1.47267 27.220333,0.84611 6.03982,-0.38993 5.71504,-0.33796 6.40151,-1.02444 0.59617,-0.59616 0.82903,-1.23174 1.01217,-2.76266 0.0878,-0.73397 0.23905,-1.90599 0.3361,-2.60449 0.27549,-1.98273 0.39429,-3.06513 0.79915,-7.28133 0.11626,-1.21074 0.25115,-2.56329 0.29975,-3.00567 0.13796,-1.25557 0.33009,-3.1357 0.46721,-4.572 0.18349,-1.92182 0.46122,-2.58815 1.30425,-3.12912 0.46262,-0.29686 0.57946,-0.31511 2.75719,-0.43054 0.93134,-0.0494 1.92194,-0.10458 2.20134,-0.1227 0.2794,-0.0181 1.0414,-0.0562 1.69333,-0.0845 0.65193,-0.0284 1.69968,-0.0884 2.32833,-0.13337 1.68862,-0.12081 2.1741,-0.15222 3.85234,-0.2493 0.8382,-0.0485 2.1336,-0.12376 2.87866,-0.16727 0.74507,-0.0435 2.17382,-0.12072 3.175,-0.17159 1.00119,-0.0509 2.37279,-0.12681 3.048,-0.16876 7.80321,-0.48483 7.66882,-0.55697 7.31917,3.9285 -0.0722,0.92638 -0.11547,1.72648 -0.0961,1.778 0.0247,0.0657 -0.37271,0.0982 -1.3291,0.10863 -0.75035,0.008 -2.08818,0.0754 -2.97295,0.14937 -3.01732,0.25216 -5.03361,0.39328 -8.636,0.60442 -1.72643,0.10119 -1.56633,-0.49001 -1.56633,5.78407 v 5.2516 l -0.18172,0.16931 c -0.1,0.0931 -0.35713,0.19292 -0.5715,0.2218 -0.21438,0.0289 -0.71363,0.10952 -1.10945,0.17923 -0.67178,0.1183 -1.39665,0.20143 -2.83633,0.32527 -0.32597,0.028 -0.93557,0.0875 -1.35467,0.13219 -0.4191,0.0447 -1.4097,0.13776 -2.20133,0.20687 -0.79163,0.0691 -1.93463,0.18258 -2.54,0.25215 -0.60537,0.0696 -2.18652,0.24124 -3.51367,0.3815 -1.32715,0.14026 -2.55902,0.27085 -2.73749,0.2902 -0.41865,0.0454 -0.41744,0.0437 -0.49692,0.68738 -0.0372,0.30105 -0.0981,0.79502 -0.13548,1.0977 -0.0373,0.30268 -0.0373,0.55033 0,0.55033 0.0373,0 0.0679,0.0403 0.0679,0.0897 0,0.0493 -0.0381,0.0661 -0.0847,0.0373 -0.0472,-0.0292 -0.0841,0.0342 -0.0834,0.14317 10e-4,0.16038 0.0171,0.17268 0.0892,0.0685 0.0723,-0.10439 0.0824,-0.0968 0.0572,0.0423 -0.0169,0.0931 -0.071,0.1615 -0.12032,0.15191 -0.0493,-0.01 -0.0861,0.10472 -0.0819,0.254 0.004,0.14929 -0.0206,0.3762 -0.0552,0.50426 -0.0362,0.13415 -0.0289,0.23283 0.0173,0.23283 0.044,0 0.0975,-0.0667 0.1188,-0.14816 0.036,-0.13766 0.0394,-0.13783 0.0485,-0.002 0.0179,0.26541 4.69463,0.22677 6.91015,-0.0571 2.28797,-0.29314 7.61456,-1.16714 8.36083,-1.37186 0.17478,-0.0479 0.19184,-0.35459 0.0596,-1.07019 -0.11654,-0.63042 -0.0285,-0.79777 0.44867,-0.85308 0.19779,-0.0229 1.08352,-0.10327 1.96828,-0.17855 0.88477,-0.0753 2.04682,-0.19171 2.58234,-0.25874 4.58346,-0.57368 4.69561,-0.57912 5.08,-0.24628 0.87156,0.7547 1.99764,1.22094 2.0662,0.85548 0.13507,-0.71999 1.29703,-1.10378 2.24791,-0.74247 0.2527,0.096 0.46442,0.16596 0.47047,0.15542 0.21658,-0.37674 0.30792,-1.31687 0.11646,-1.19854 -0.0413,0.0255 -0.075,0.006 -0.075,-0.0433 0,-0.0529 0.20312,-0.0897 0.49522,-0.0897 0.27238,0 0.79625,-0.0194 1.16417,-0.0431 0.36792,-0.0237 0.63082,-0.0237 0.58422,2e-5 -0.0466,0.0237 -0.48456,0.0717 -0.97325,0.10658 l -0.88852,0.0635 -0.0851,0.39565 c -0.0468,0.21761 -0.11366,0.42398 -0.14859,0.45861 -0.24432,0.24225 0.006,0.57918 0.78317,1.05298 2.07282,1.26416 2.23073,1.34852 2.44683,1.30723 0.16938,-0.0324 0.18296,-0.0258 0.0589,0.0284 -0.1477,0.0646 -0.13973,0.0843 0.0946,0.23413 0.14072,0.09 0.76164,0.50653 1.3798,0.92563 0.61817,0.4191 1.35537,0.90423 1.63824,1.07806 0.74068,0.45519 1.07432,0.81606 1.12386,1.21559 0.12097,0.97571 -1.03207,1.55514 -1.857,0.93319 -0.14898,-0.11233 -0.49947,-0.32699 -0.77887,-0.47704 -0.2794,-0.15004 -1.17475,-0.71263 -1.98966,-1.25019 -0.81492,-0.53756 -2.02998,-1.33932 -2.70014,-1.78169 -1.311,-0.86539 -1.61964,-1.00649 -2.37403,-1.08534 l -0.48788,-0.051 -0.0538,0.39261 c -0.0507,0.36977 -0.48959,1.55576 -1.55463,4.2008 -0.25313,0.62865 -0.64476,1.65735 -0.87028,2.286 -1.05926,2.95272 -1.0874,2.97263 -5.80222,4.10724 -0.8382,0.20171 -2.03835,0.50321 -2.667,0.66999 -0.62865,0.16679 -1.69545,0.43883 -2.37067,0.60453 -0.67522,0.1657 -1.97062,0.48613 -2.87867,0.71207 -0.90805,0.22593 -2.0701,0.49336 -2.58233,0.59428 -0.51223,0.10093 -1.21708,0.2399 -1.56633,0.30883 -0.73472,0.14502 -1.70954,0.23439 -4.48734,0.41142 -0.92374,0.0589 -1.80353,0.12394 -2.286,0.16907 -0.83679,0.0783 -3.06637,0.19198 -4.99533,0.25476 -0.76835,0.025 -1.7018,0.063 -2.07433,0.0845 -0.37253,0.0214 -1.21073,0.0595 -1.86267,0.0846 -0.65193,0.0251 -1.52823,0.0633 -1.94733,0.0849 -0.4191,0.0216 -1.4097,0.0629 -2.20133,0.0919 -0.79164,0.029 -1.53459,0.0642 -1.651,0.0782 -0.11642,0.0141 -0.93557,0.05 -1.82034,0.0799 -0.88476,0.0299 -1.70391,0.0696 -1.82033,0.0884 -0.11642,0.0188 -1.12607,0.0594 -2.24367,0.0904 -1.1176,0.0309 -2.10031,0.069 -2.18381,0.0845 -0.0835,0.0155 -0.94075,0.0526 -1.905,0.0822 l -1.75319,0.054 z m 16.160016,-10.54676 c 0,-0.0233 -0.0191,-0.0423 -0.0423,-0.0423 -0.0233,0 -0.0423,0.019 -0.0423,0.0423 0,0.0233 0.019,0.0423 0.0423,0.0423 0.0233,0 0.0423,-0.019 0.0423,-0.0423 z m 0.16933,0 c 0,-0.0233 -0.0191,-0.0423 -0.0423,-0.0423 -0.0233,0 -0.0423,0.019 -0.0423,0.0423 0,0.0233 0.019,0.0423 0.0423,0.0423 0.0233,0 0.0423,-0.019 0.0423,-0.0423 z m -37.838777,6.04928 c -0.733282,-0.19201 -0.843959,-0.1997 -1.742885,-0.12111 -2.263235,0.19787 -3.725067,-0.72459 -5.325342,-3.36046 -0.771693,-1.27109 -1.709814,-3.94586 -1.876693,-5.35083 -0.06873,-0.57867 -0.175075,-0.69704 -0.815148,-0.90731 -0.247216,-0.0812 -1.630584,-0.55281 -3.07415,-1.04798 -1.443567,-0.49518 -3.158067,-1.07271 -3.81,-1.2834 -1.281266,-0.41407 -1.503724,-0.49311 -2.304717,-0.81886 l -0.526718,-0.21421 -0.05454,0.29075 c -0.238162,1.26951 -1.898162,3.05767 -3.083023,3.32104 -4.642947,1.03203 -7.557945,-1.18597 -8.382564,-6.37825 -0.139617,-0.87911 0.02052,-0.82493 -1.864461,-0.63079 -0.906751,0.0934 -2.296338,0.17712 -3.087971,0.18608 l -1.439333,0.0163 -0.804333,-0.30103 c -2.165425,-0.81044 -3.734316,-1.40832 -5.122333,-1.95203 -0.8382,-0.32833 -2.22885,-0.86173 -3.090334,-1.18532 -0.861483,-0.32358 -2.042583,-0.78093 -2.624666,-1.01632 -0.582083,-0.23539 -1.458383,-0.5729 -1.947333,-0.75002 -0.48895,-0.17712 -1.4986,-0.55696 -2.243667,-0.84408 -0.745067,-0.28712 -1.507066,-0.57148 -1.693333,-0.6319 -0.186267,-0.0604 -0.624417,-0.23113 -0.973667,-0.37934 -0.34925,-0.14821 -1.18745,-0.47398 -1.862666,-0.72394 -0.675217,-0.24995 -1.456267,-0.54878 -1.735667,-0.66406 l -0.508,-0.2096 -0.02285,-1.83784 c -0.0215,-1.72999 -0.01405,-1.8342 0.127,-1.77581 0.296635,0.1228 4.759938,1.62491 5.399178,1.81707 0.2794,0.084 1.06045,0.34744 1.735667,0.58543 0.675216,0.23799 1.294134,0.4329 1.375372,0.43313 0.14012,3.9e-4 0.146643,-0.97261 0.127,-18.94376 -0.02541,-23.24921 -0.434613,-20.47854 3.091767,-20.93411 1.479064,-0.19107 1.629197,-0.16809 2.002563,0.30657 0.506299,0.64365 0.471154,-0.88112 0.49154,21.32518 l 0.01858,20.23447 0.193091,0.0558 c 0.462226,0.13361 3.805205,1.20991 4.365235,1.40541 0.33888,0.1183 0.626908,0.20026 0.640063,0.18213 0.212621,-0.29305 1.015586,-1.81714 2.311024,-4.38648 1.928447,-3.82485 2.235236,-4.22007 3.581301,-4.61368 0.845888,-0.24735 1.326785,-0.17425 5.9748,0.90823 1.1176,0.26028 2.58445,0.5941 3.259666,0.74183 1.396656,0.30557 1.786623,0.39488 3.090333,0.70774 0.512234,0.12293 1.540934,0.35477 2.286,0.5152 1.872817,0.40327 2.133718,0.48151 2.83592,0.85051 1.206427,0.63396 2.055664,1.66669 3.685392,4.48168 0.269596,0.46567 1.03032,1.76107 1.690497,2.87867 0.660178,1.1176 1.601248,2.7178 2.091266,3.556 0.490018,0.8382 1.159291,1.9812 1.487273,2.54 l 0.59633,1.016 0.791661,0.24951 c 0.435413,0.13723 0.96311,0.31557 1.17266,0.39632 0.20955,0.0807 1.227777,0.42401 2.262727,0.7628 1.231937,0.40327 1.845908,0.64194 1.778,0.69116 -0.06986,0.0506 -0.05461,0.0593 0.04672,0.0266 0.08275,-0.0267 0.311348,0.004 0.508,0.068 3.637399,1.18565 4.848763,1.53993 8.316214,2.43219 0.6985,0.17974 1.108075,0.3072 0.910167,0.28325 -0.318525,-0.0386 -0.359833,-0.024 -0.359833,0.12678 0,0.1263 0.05602,0.17034 0.216663,0.17034 0.142539,0 0.195942,-0.0335 0.156094,-0.098 -0.04253,-0.0688 1.24e-4,-0.0815 0.14317,-0.0426 0.112057,0.0305 0.406525,0.0802 0.654375,0.11038 0.247849,0.0302 0.413813,0.078 0.368808,0.10611 -0.045,0.0281 0.171309,0.0555 0.480698,0.0609 0.402855,0.007 0.490428,-0.008 0.308525,-0.0535 -0.345766,-0.0861 0.04832,-0.091 0.423333,-0.005 0.3485,0.0797 -0.128634,0.14862 -1.566333,0.22619 -0.582083,0.0314 -1.113747,0.0649 -1.181475,0.0744 -0.08184,0.0115 -0.175013,0.25614 -0.27781,0.72946 -1.098535,5.05813 -3.960826,7.54318 -7.592829,6.59211 z m -5.933885,-12.06062 c 0,-0.0233 -0.01905,-0.0423 -0.04233,-0.0423 -0.02328,0 -0.04233,0.0191 -0.04233,0.0423 0,0.0233 0.01905,0.0423 0.04233,0.0423 0.02328,0 0.04233,-0.019 0.04233,-0.0423 z M 33.386813,172.71809 c 0,-0.0233 -0.01905,-0.0423 -0.04233,-0.0423 -0.02328,0 -0.04233,0.019 -0.04233,0.0423 0,0.0233 0.01905,0.0423 0.04233,0.0423 0.02328,0 0.04233,-0.0191 0.04233,-0.0423 z m 55.525455,15.39383 c 0.06112,-0.0245 0.134144,-0.0214 0.162278,0.007 0.02813,0.0281 -0.02187,0.0482 -0.111125,0.0445 -0.09863,-0.004 -0.118694,-0.0241 -0.05115,-0.0512 z m -0.63868,-0.0855 c 0.08238,-0.0215 0.196678,-0.02 0.254,0.003 0.05732,0.0232 -0.01008,0.0408 -0.149778,0.039 -0.1397,-0.002 -0.1866,-0.0207 -0.104222,-0.0422 z m -1.970111,-0.32771 -0.465667,-0.11338 0.449294,0.0468 c 0.247111,0.0258 0.551911,0.0778 0.677333,0.11561 l 0.22804,0.0688 -0.211667,-0.002 c -0.116416,-0.001 -0.421216,-0.0533 -0.677333,-0.11561 z m -1.016,0.005 c 0,-0.0233 0.01905,-0.0423 0.04233,-0.0423 0.02328,0 0.04233,0.019 0.04233,0.0423 0,0.0233 -0.01905,0.0423 -0.04233,0.0423 -0.02328,0 -0.04233,-0.019 -0.04233,-0.0423 z m 39.962663,-1.18534 c 0,-0.0233 0.019,-0.0423 0.0423,-0.0423 0.0233,0 0.0423,0.0191 0.0423,0.0423 0,0.0233 -0.0191,0.0423 -0.0423,0.0423 -0.0233,0 -0.0423,-0.0191 -0.0423,-0.0423 z m 0.0847,-0.16933 c 0,-0.0233 0.019,-0.0423 0.0423,-0.0423 0.0233,0 0.0423,0.0191 0.0423,0.0423 0,0.0233 -0.0191,0.0423 -0.0423,0.0423 -0.0233,0 -0.0423,-0.019 -0.0423,-0.0423 z m 0,-0.21167 c 0,-0.0621 0.0254,-0.0875 0.0564,-0.0564 0.0311,0.031 0.0311,0.0818 0,0.11289 -0.031,0.031 -0.0564,0.006 -0.0564,-0.0564 z m 35.50355,-0.73377 c 0.031,-0.031 0.0819,-0.031 0.11289,0 0.031,0.031 0.006,0.0564 -0.0564,0.0564 -0.0621,0 -0.0875,-0.0254 -0.0565,-0.0564 z m 0.28928,3.7e-4 c 0.0582,-0.0235 0.15346,-0.0235 0.21167,0 0.0582,0.0235 0.0106,0.0427 -0.10584,0.0427 -0.11641,0 -0.16404,-0.0192 -0.10583,-0.0427 z m 0.42333,0 c 0.0582,-0.0235 0.15346,-0.0235 0.21167,0 0.0582,0.0235 0.0106,0.0427 -0.10583,0.0427 -0.11642,0 -0.16405,-0.0192 -0.10584,-0.0427 z m -36.1315,-0.4096 c 0,-0.0233 0.019,-0.0423 0.0423,-0.0423 0.0233,0 0.0423,0.0191 0.0423,0.0423 0,0.0233 -0.0191,0.0423 -0.0423,0.0423 -0.0233,0 -0.0423,-0.019 -0.0423,-0.0423 z m 33.89489,-0.0988 c 0.031,-0.0311 0.0819,-0.0311 0.11289,0 0.0311,0.031 0.006,0.0564 -0.0564,0.0564 -0.0621,0 -0.0875,-0.0254 -0.0565,-0.0564 z m -33.89489,-0.0706 c 0,-0.0233 0.019,-0.0423 0.0423,-0.0423 0.0233,0 0.0423,0.0191 0.0423,0.0423 0,0.0233 -0.0191,0.0423 -0.0423,0.0423 -0.0233,0 -0.0423,-0.019 -0.0423,-0.0423 z m 34.23356,-0.0141 c 0.031,-0.031 0.0818,-0.031 0.11289,0 0.031,0.031 0.006,0.0564 -0.0564,0.0564 -0.0621,0 -0.0875,-0.0254 -0.0564,-0.0564 z m 0.42333,-0.0847 c 0.031,-0.031 0.0819,-0.031 0.11289,0 0.0311,0.031 0.006,0.0564 -0.0564,0.0564 -0.0621,0 -0.0875,-0.0254 -0.0565,-0.0564 z m 0.37924,-0.0861 c 0.0611,-0.0245 0.13414,-0.0214 0.16228,0.007 0.0281,0.0281 -0.0219,0.0481 -0.11113,0.0445 -0.0986,-0.004 -0.11869,-0.0241 -0.0512,-0.0512 z m 0.42333,-0.0847 c 0.0611,-0.0245 0.13414,-0.0214 0.16228,0.007 0.0281,0.0281 -0.0219,0.0481 -0.11113,0.0445 -0.0986,-0.004 -0.11869,-0.0241 -0.0512,-0.0512 z m 0.33867,-0.0847 c 0.0611,-0.0245 0.13414,-0.0214 0.16228,0.007 0.0281,0.0281 -0.0219,0.0482 -0.11113,0.0445 -0.0986,-0.004 -0.11869,-0.0241 -0.0512,-0.0512 z m 0.42333,-0.0847 c 0.0611,-0.0245 0.13414,-0.0215 0.16228,0.007 0.0281,0.0281 -0.0219,0.0481 -0.11113,0.0445 -0.0986,-0.004 -0.11869,-0.0241 -0.0512,-0.0512 z m 0.39688,-0.11149 c 0.0931,-0.04 0.24553,-0.0717 0.33866,-0.0703 0.13613,0.002 0.12783,0.0158 -0.0423,0.0703 -0.28949,0.0927 -0.51208,0.0927 -0.29633,0 z m 0.61383,-0.14074 c 0.0582,-0.0235 0.15346,-0.0235 0.21167,0 0.0582,0.0235 0.0106,0.0427 -0.10584,0.0427 -0.11641,0 -0.16404,-0.0192 -0.10583,-0.0427 z m 0.52917,-0.11326 c 0.28949,-0.0927 0.51208,-0.0927 0.29633,0 -0.0931,0.04 -0.24553,0.0716 -0.33867,0.0703 -0.13612,-0.002 -0.12782,-0.0158 0.0423,-0.0703 z m 1.50812,0.0268 c 0.0611,-0.0245 0.13414,-0.0215 0.16228,0.007 0.0281,0.0281 -0.0219,0.0481 -0.11113,0.0445 -0.0986,-0.004 -0.11869,-0.0241 -0.0512,-0.0512 z m 0.33338,0.002 c 0.0582,-0.0235 0.15345,-0.0235 0.21166,0 0.0582,0.0235 0.0106,0.0427 -0.10583,0.0427 -0.11642,0 -0.16404,-0.0192 -0.10583,-0.0427 z m 0.81138,-3.7e-4 c 0.0311,-0.031 0.0819,-0.031 0.11289,0 0.031,0.031 0.006,0.0564 -0.0564,0.0564 -0.0621,0 -0.0875,-0.0254 -0.0565,-0.0564 z m -2.01788,-0.19756 c 0.0931,-0.04 0.22648,-0.0728 0.29633,-0.0728 0.08,0 0.0644,0.0269 -0.0423,0.0728 -0.0931,0.04 -0.22649,0.0728 -0.29634,0.0728 -0.08,0 -0.0644,-0.0269 0.0423,-0.0728 z M 110.509,183.68804 c -2.68811,-0.14825 -2.96785,-0.72433 -2.57227,-5.29729 0.11682,-1.35043 0.32626,-3.86503 0.46542,-5.588 0.30556,-3.78323 0.29204,-3.6891 0.61846,-4.30761 0.59241,-1.12252 0.95031,-1.20598 5.47687,-1.27718 1.74625,-0.0275 3.9146,-0.0905 4.81857,-0.13996 1.9401,-0.10626 2.25587,-0.0726 2.73831,0.29165 0.1977,0.14927 0.64377,0.43917 0.99127,0.64422 0.3475,0.20505 0.73811,0.4892 0.86803,0.63144 l 0.23622,0.25863 -0.005,6.39441 c -0.006,8.31737 0.24768,7.62823 -2.92985,7.95987 -0.87759,0.0916 -2.12902,0.22733 -2.78095,0.30164 -1.35181,0.15409 -6.07162,0.23042 -7.92548,0.12818 z m 54.05469,-0.0621 c 0.031,-0.031 0.0819,-0.031 0.11289,0 0.031,0.031 0.006,0.0564 -0.0564,0.0564 -0.0621,0 -0.0875,-0.0254 -0.0564,-0.0564 z m 0.31045,-0.0706 c 0,-0.0233 0.019,-0.0423 0.0423,-0.0423 0.0233,0 0.0423,0.019 0.0423,0.0423 0,0.0233 -0.019,0.0423 -0.0423,0.0423 -0.0233,0 -0.0423,-0.019 -0.0423,-0.0423 z m 0.16933,-0.0756 c 0,-0.0183 0.0591,-0.056 0.1314,-0.0837 0.0754,-0.0289 0.10933,-0.0147 0.0797,0.0333 -0.0497,0.0804 -0.21107,0.11899 -0.21107,0.0504 z m 0.89367,-0.74989 c 0.13641,-0.15134 0.28155,-0.31327 0.32254,-0.35983 0.041,-0.0466 0.0269,0.0106 -0.0314,0.127 -0.13974,0.27927 -0.34315,0.508 -0.45178,0.508 -0.0481,0 0.0242,-0.12383 0.16063,-0.27517 z m -26.75231,-0.47547 c -0.0365,-0.059 -0.0435,-0.13016 -0.0155,-0.15811 0.0758,-0.0758 0.15839,0.0357 0.11746,0.15845 -0.0287,0.086 -0.0486,0.086 -0.10196,-3.4e-4 z m 0.20464,-0.096 c 0,-0.0621 0.0254,-0.0875 0.0565,-0.0564 0.031,0.031 0.031,0.0818 0,0.11289 -0.031,0.031 -0.0565,0.006 -0.0565,-0.0564 z m 26.924,0 c 0,-0.0621 0.0254,-0.0875 0.0565,-0.0564 0.031,0.031 0.031,0.0818 0,0.11289 -0.0311,0.031 -0.0565,0.006 -0.0565,-0.0564 z m 1.11231,-0.41253 c -0.0102,-0.47311 -0.0275,-0.52635 -0.14069,-0.43244 -0.071,0.0589 -0.1544,0.0817 -0.18539,0.0508 -0.031,-0.031 0.0271,-0.11477 0.12905,-0.18619 0.1571,-0.11005 0.18519,-0.20986 0.18409,-0.65422 -9.1e-4,-0.3698 -0.0255,-0.48693 -0.0834,-0.39737 -0.0729,0.11289 -0.0829,0.11289 -0.0893,0 -0.0521,-0.92008 -0.0489,-1.18533 0.0143,-1.18533 0.0412,0 0.10357,-0.01 0.13849,-0.0212 0.0349,-0.0116 0.0716,0.0741 0.0815,0.1905 0.0976,1.15012 0.10672,1.68326 0.0405,2.37067 -0.0731,0.75847 -0.0782,0.77357 -0.0891,0.2648 z m -0.0116,-2.00047 c 0,-0.0233 -0.019,-0.0423 -0.0423,-0.0423 -0.0233,0 -0.0423,0.019 -0.0423,0.0423 0,0.0233 0.0191,0.0423 0.0423,0.0423 0.0233,0 0.0423,-0.019 0.0423,-0.0423 z m -0.0742,-0.48824 c -0.0836,-0.083 -0.0933,-0.0733 -0.0474,0.0474 0.0318,0.0835 0.0791,0.13049 0.10521,0.10442 0.0261,-0.0261 5e-5,-0.0944 -0.0578,-0.15181 z m -0.0105,-0.18909 c 0,-0.0233 -0.019,-0.0423 -0.0423,-0.0423 -0.0233,0 -0.0423,0.0191 -0.0423,0.0423 0,0.0233 0.019,0.0423 0.0423,0.0423 0.0233,0 0.0423,-0.019 0.0423,-0.0423 z m -28.10933,2.88854 c 0,-0.0752 0.34254,-0.11445 0.38591,-0.0443 0.0261,0.0422 -0.0501,0.0767 -0.16925,0.0767 -0.11916,0 -0.21666,-0.0146 -0.21666,-0.0325 z m 27.178,-0.0522 c 0,-0.0621 0.0254,-0.0875 0.0564,-0.0564 0.031,0.031 0.031,0.0818 0,0.11289 -0.031,0.031 -0.0564,0.006 -0.0564,-0.0565 z m 0.0847,-0.254 c 0,-0.0621 0.0254,-0.0875 0.0564,-0.0564 0.031,0.031 0.031,0.0818 0,0.11289 -0.031,0.031 -0.0564,0.006 -0.0564,-0.0565 z m -8.40317,-0.14074 c 0.0582,-0.0235 0.15346,-0.0235 0.21167,0 0.0582,0.0235 0.0106,0.0427 -0.10584,0.0427 -0.11641,0 -0.16404,-0.0192 -0.10583,-0.0427 z m 0.35983,-0.0709 c 0,-0.0233 0.019,-0.0423 0.0423,-0.0423 0.0233,0 0.0423,0.019 0.0423,0.0423 0,0.0233 -0.019,0.0423 -0.0423,0.0423 -0.0233,0 -0.0423,-0.019 -0.0423,-0.0423 z m 8.128,-0.0847 c 0,-0.0233 0.0191,-0.0423 0.0423,-0.0423 0.0233,0 0.0423,0.0191 0.0423,0.0423 0,0.0233 -0.019,0.0423 -0.0423,0.0423 -0.0233,0 -0.0423,-0.019 -0.0423,-0.0423 z m -8.37531,-0.1905 c 0.004,-0.0894 0.0237,-0.10597 0.0496,-0.0418 0.0236,0.0585 0.0777,0.0848 0.12032,0.0585 0.0426,-0.0263 0.0774,-0.008 0.0774,0.0418 0,0.0493 -0.0572,0.0897 -0.127,0.0897 -0.0699,0 -0.12399,-0.0667 -0.12031,-0.14816 z m 0.56339,-0.3175 c 0.0253,-0.2794 0.0598,-0.52388 0.0766,-0.54328 0.0627,-0.0721 0.0161,0.71896 -0.0519,0.88194 -0.0427,0.10224 -0.0524,-0.0319 -0.0247,-0.33866 z m 7.90996,0.127 c 0,-0.11642 0.0192,-0.16404 0.0427,-0.10584 0.0235,0.0582 0.0235,0.15346 0,0.21167 -0.0235,0.0582 -0.0427,0.0106 -0.0427,-0.10583 z m -8.3107,0.009 c 0,-0.0571 -0.037,-0.0809 -0.0822,-0.053 -0.14831,0.0917 -0.1832,-0.32885 -0.15615,-1.882 0.0236,-1.35695 0.0974,-1.89494 0.21483,-1.5661 0.0209,0.0585 0.0724,0.0851 0.11443,0.0591 0.0421,-0.026 0.0514,0.0181 0.0207,0.098 -0.0378,0.0986 -0.0239,0.1256 0.0433,0.0841 0.13315,-0.0823 0.12788,0.13785 -0.007,0.28297 -0.0865,0.0933 -0.078,0.10424 0.0467,0.0602 0.10812,-0.0381 0.13344,-0.0233 0.0869,0.051 -0.0926,0.14789 -0.0874,0.33817 0.0132,0.48095 0.06,0.0851 0.0583,0.10551 -0.006,0.0673 -0.0593,-0.0355 -0.0944,0.0705 -0.0998,0.30125 -0.0218,0.94366 -0.0948,2.02497 -0.13967,2.06984 -0.0275,0.0275 -0.05,0.003 -0.05,-0.0537 z m 0.0847,-1.74478 c 0,-0.0233 -0.019,-0.0423 -0.0423,-0.0423 -0.0233,0 -0.0423,0.019 -0.0423,0.0423 0,0.0233 0.0191,0.0423 0.0423,0.0423 0.0233,0 0.0423,-0.019 0.0423,-0.0423 z m -0.0847,-0.93133 c 0,-0.0233 -0.019,-0.0423 -0.0423,-0.0423 -0.0233,0 -0.0423,0.0191 -0.0423,0.0423 0,0.0233 0.019,0.0423 0.0423,0.0423 0.0233,0 0.0423,-0.019 0.0423,-0.0423 z m 0,-0.508 c 0,-0.0233 -0.019,-0.0423 -0.0423,-0.0423 -0.0233,0 -0.0423,0.019 -0.0423,0.0423 0,0.0233 0.019,0.0423 0.0423,0.0423 0.0233,0 0.0423,-0.019 0.0423,-0.0423 z m 8.84766,3.175 c 0.0288,-0.0466 0.0714,-0.0847 0.0947,-0.0847 0.0233,0 0.0188,0.0381 -0.01,0.0847 -0.0288,0.0466 -0.0714,0.0847 -0.0947,0.0847 -0.0233,0 -0.0188,-0.0381 0.01,-0.0847 z m -0.4523,-0.42334 c 0,-0.11641 0.0192,-0.16404 0.0427,-0.10583 0.0235,0.0582 0.0235,0.15346 0,0.21167 -0.0235,0.0582 -0.0427,0.0106 -0.0427,-0.10584 z m 0.49464,-0.21166 c 0,-0.0233 0.019,-0.0423 0.0423,-0.0423 0.0233,0 0.0423,0.019 0.0423,0.0423 0,0.0233 -0.019,0.0423 -0.0423,0.0423 -0.0233,0 -0.0423,-0.019 -0.0423,-0.0423 z m -0.36149,-0.83749 0.048,-0.75281 -0.45712,0.0483 c -6.02756,0.63705 -6.68741,0.3292 -6.26032,-2.92072 0.0446,-0.33951 0.1221,-1.09354 0.17219,-1.67563 0.0501,-0.58208 0.12658,-1.34408 0.16997,-1.69333 0.11932,-0.96029 0.40922,-3.64707 0.50827,-4.71067 0.0483,-0.51865 0.16452,-1.24255 0.25826,-1.60866 0.38006,-1.48437 0.54515,-1.59476 2.57785,-1.72363 0.65194,-0.0413 1.82499,-0.13727 2.60679,-0.21322 1.81054,-0.17587 2.19559,-0.14064 3.74314,0.34248 2.42715,0.75772 2.15907,-0.0986 2.15907,6.89689 v 5.8035 l -0.21455,0.31574 c -0.39323,0.5787 -0.86529,0.72462 -3.21445,0.99368 -1.80024,0.2062 -1.80096,0.2063 -1.86634,0.27168 -0.028,0.028 -0.0714,0.17833 -0.0964,0.33406 -0.15091,0.94037 -0.17983,1.00323 -0.13446,0.29233 z M 153.142,179.21537 c -0.6247,-0.22324 -1.22693,-0.78131 -1.52959,-1.41743 -0.15672,-0.3294 -0.0806,-4.31419 0.0873,-4.57045 1.3017,-1.98664 4.30053,-1.74846 5.31057,0.42178 1.42664,3.06535 -1.01896,6.58434 -3.86828,5.5661 z m 5.46685,-0.14743 c 0,-0.0233 0.019,-0.0423 0.0423,-0.0423 0.0233,0 0.0423,0.0191 0.0423,0.0423 0,0.0233 -0.019,0.0423 -0.0423,0.0423 -0.0233,0 -0.0423,-0.019 -0.0423,-0.0423 z m -0.42334,-1.778 c 0,-0.0233 0.019,-0.0423 0.0423,-0.0423 0.0233,0 0.0423,0.019 0.0423,0.0423 0,0.0233 -0.019,0.0423 -0.0423,0.0423 -0.0233,0 -0.0423,-0.0191 -0.0423,-0.0423 z m 0,-3.13267 c 0,-0.0233 0.019,-0.0423 0.0423,-0.0423 0.0233,0 0.0423,0.019 0.0423,0.0423 0,0.0233 -0.019,0.0423 -0.0423,0.0423 -0.0233,0 -0.0423,-0.019 -0.0423,-0.0423 z m -0.0635,-0.34538 c 0,-0.11273 0.0443,-0.20495 0.0984,-0.20495 0.13706,0 0.14757,0.31551 0.0122,0.36744 -0.0723,0.0277 -0.11064,-0.0286 -0.11064,-0.16249 z m 0.3175,0.007 c 0,-0.0233 0.019,-0.0423 0.0423,-0.0423 0.0233,0 0.0423,0.019 0.0423,0.0423 0,0.0233 -0.019,0.0423 -0.0423,0.0423 -0.0233,0 -0.0423,-0.019 -0.0423,-0.0423 z m -0.3175,-0.508 c 0,-0.11641 0.0333,-0.21166 0.0741,-0.21166 0.0407,0 0.0741,0.0594 0.0741,0.13199 0,0.0831 0.0392,0.10843 0.10583,0.0684 0.0719,-0.0432 0.0686,-0.0177 -0.0104,0.0797 -0.16306,0.20102 -0.24364,0.17839 -0.24364,-0.0684 z m 0.103,-0.27646 c -0.16307,-0.11593 -0.10113,-0.95231 0.0779,-1.05253 0.12217,-0.0684 0.14453,-0.0647 0.095,0.0154 -0.0362,0.0585 -0.0172,0.13428 0.043,0.1715 0.0593,0.0367 0.0835,0.13006 0.0538,0.20756 -0.0299,0.078 -0.097,0.11437 -0.15032,0.0814 -0.0592,-0.0366 -0.0798,-0.0143 -0.0535,0.0581 0.0235,0.0647 0.0856,0.1081 0.13798,0.0964 0.12948,-0.0288 0.0823,0.16392 -0.0741,0.30231 -0.0698,0.0618 -0.0794,0.0883 -0.0212,0.0588 0.0582,-0.0295 0.10583,-0.0133 0.10583,0.0361 0,0.10376 -0.089,0.11408 -0.2145,0.0249 z m 0.12984,-0.73954 c 0,-0.0233 -0.019,-0.0423 -0.0423,-0.0423 -0.0233,0 -0.0423,0.019 -0.0423,0.0423 0,0.0233 0.019,0.0423 0.0423,0.0423 0.0233,0 0.0423,-0.019 0.0423,-0.0423 z m -0.254,-3.048 c 0,-0.0233 0.019,-0.0423 0.0423,-0.0423 0.0233,0 0.0423,0.019 0.0423,0.0423 0,0.0233 -0.0191,0.0423 -0.0423,0.0423 -0.0233,0 -0.0423,-0.019 -0.0423,-0.0423 z m 0.67733,0 c 0,-0.0233 0.019,-0.0423 0.0423,-0.0423 0.0233,0 0.0423,0.019 0.0423,0.0423 0,0.0233 -0.019,0.0423 -0.0423,0.0423 -0.0233,0 -0.0423,-0.019 -0.0423,-0.0423 z m -1.10067,-0.21166 c 0,-0.0466 0.0403,-0.0847 0.0897,-0.0847 0.0493,0 0.0661,0.0381 0.0373,0.0847 -0.0288,0.0466 -0.0691,0.0847 -0.0897,0.0847 -0.0205,0 -0.0373,-0.0381 -0.0373,-0.0847 z m 0.33867,-0.0423 c 0,-0.0233 0.019,-0.0423 0.0423,-0.0423 0.0233,0 0.0423,0.019 0.0423,0.0423 0,0.0233 -0.019,0.0423 -0.0423,0.0423 -0.0233,0 -0.0423,-0.019 -0.0423,-0.0423 z m 0.16933,-0.0498 c 0,-0.0425 0.0825,-0.0772 0.18345,-0.0772 0.10089,0 0.15694,0.0265 0.12455,0.0589 -0.0915,0.0915 -0.308,0.10436 -0.308,0.0183 z m 10.53292,-7.62559 c -0.0374,-0.0606 -0.0232,-0.0748 0.0373,-0.0373 0.0976,0.0603 0.13104,0.13509 0.0604,0.13509 -0.0205,0 -0.0645,-0.044 -0.0977,-0.0977 z m -0.11892,-0.19858 c 0,-0.0233 0.019,-0.0423 0.0423,-0.0423 0.0233,0 0.0423,0.019 0.0423,0.0423 0,0.0233 -0.0191,0.0423 -0.0423,0.0423 -0.0233,0 -0.0423,-0.019 -0.0423,-0.0423 z m -0.0847,-0.16934 c 0,-0.0233 0.019,-0.0423 0.0423,-0.0423 0.0233,0 0.0423,0.019 0.0423,0.0423 0,0.0233 -0.019,0.0423 -0.0423,0.0423 -0.0233,0 -0.0423,-0.019 -0.0423,-0.0423 z m -0.0847,-0.16933 c 0,-0.0233 0.019,-0.0423 0.0423,-0.0423 0.0233,0 0.0423,0.019 0.0423,0.0423 0,0.0233 -0.0191,0.0423 -0.0423,0.0423 -0.0233,0 -0.0423,-0.019 -0.0423,-0.0423 z m -0.16933,-0.254 c 0,-0.0233 0.0191,-0.0423 0.0423,-0.0423 0.0233,0 0.0423,0.0191 0.0423,0.0423 0,0.0233 -0.019,0.0423 -0.0423,0.0423 -0.0233,0 -0.0423,-0.019 -0.0423,-0.0423 z m 0.42333,-0.127 c -0.10853,-0.0701 -0.10546,-0.0823 0.0212,-0.0834 0.0815,-7.1e-4 0.14816,0.0368 0.14816,0.0834 0,0.10326 -0.01,0.10326 -0.16933,0 z m -0.254,-0.0423 c 0,-0.0233 0.019,-0.0423 0.0423,-0.0423 0.0233,0 0.0423,0.019 0.0423,0.0423 0,0.0233 -0.0191,0.0423 -0.0423,0.0423 -0.0233,0 -0.0423,-0.019 -0.0423,-0.0423 z m -0.70668,-0.5715 c -0.66005,-0.92753 -0.7417,-1.11116 -0.79246,-1.78225 -0.0457,-0.60409 0.0955,-0.93665 0.27461,-0.64684 0.028,0.0453 0.0824,0.0629 0.12084,0.0391 0.0385,-0.0238 0.0924,0.0152 0.11974,0.0865 0.0322,0.0838 -0.0172,0.15672 -0.13929,0.20582 -0.14582,0.0586 -0.15518,0.0773 -0.0409,0.0814 0.0815,0.003 0.15108,0.0339 0.15465,0.0689 0.004,0.0349 0.0192,0.13018 0.0348,0.21167 0.019,0.0993 -0.025,0.14817 -0.13348,0.14817 -0.20829,0 -0.2099,0.14267 -0.002,0.20854 0.1869,0.0593 0.19322,0.31624 0.01,0.39934 -0.10701,0.0485 -0.10492,0.0585 0.0132,0.0635 0.0976,0.004 0.12677,0.0575 0.096,0.17528 -0.0243,0.0931 -0.006,0.16934 0.0411,0.16934 0.047,0 0.10789,0.0897 0.13542,0.19943 0.0275,0.10969 0.18406,0.34573 0.34785,0.52454 0.32379,0.35351 0.33717,0.37669 0.2174,0.37669 -0.0442,0 -0.24985,-0.23812 -0.45696,-0.52916 z m -0.39399,-1.12184 c 0,-0.0233 -0.019,-0.0423 -0.0423,-0.0423 -0.0233,0 -0.0423,0.019 -0.0423,0.0423 0,0.0233 0.019,0.0423 0.0423,0.0423 0.0233,0 0.0423,-0.019 0.0423,-0.0423 z m -0.0847,-0.16933 c 0,-0.0233 -0.019,-0.0423 -0.0423,-0.0423 -0.0233,0 -0.0423,0.019 -0.0423,0.0423 0,0.0233 0.019,0.0423 0.0423,0.0423 0.0233,0 0.0423,-0.019 0.0423,-0.0423 z m 0,-0.42333 c 0,-0.0233 -0.019,-0.0423 -0.0423,-0.0423 -0.0233,0 -0.0423,0.019 -0.0423,0.0423 0,0.0233 0.019,0.0423 0.0423,0.0423 0.0233,0 0.0423,-0.019 0.0423,-0.0423 z m 0,-0.16934 c 0,-0.0233 -0.019,-0.0423 -0.0423,-0.0423 -0.0233,0 -0.0423,0.019 -0.0423,0.0423 0,0.0233 0.019,0.0423 0.0423,0.0423 0.0233,0 0.0423,-0.019 0.0423,-0.0423 z m 1.27,2.286 c 0,-0.0233 0.019,-0.0423 0.0423,-0.0423 0.0233,0 0.0423,0.019 0.0423,0.0423 0,0.0233 -0.019,0.0423 -0.0423,0.0423 -0.0233,0 -0.0423,-0.019 -0.0423,-0.0423 z m 0.254,-0.0423 c 0,-0.0621 0.0254,-0.0875 0.0564,-0.0565 0.031,0.031 0.031,0.0819 0,0.11289 -0.031,0.0311 -0.0564,0.006 -0.0564,-0.0564 z m -0.508,-0.0423 c 0,-0.0233 0.0191,-0.0423 0.0423,-0.0423 0.0233,0 0.0423,0.019 0.0423,0.0423 0,0.0233 -0.019,0.0423 -0.0423,0.0423 -0.0233,0 -0.0423,-0.0191 -0.0423,-0.0423 z m -0.762,-1.016 c 0,-0.0233 0.0191,-0.0423 0.0423,-0.0423 0.0233,0 0.0423,0.019 0.0423,0.0423 0,0.0233 -0.019,0.0423 -0.0423,0.0423 -0.0233,0 -0.0423,-0.019 -0.0423,-0.0423 z m -40.31491,-2.36622 c -0.0158,-0.0137 -0.69551,-0.0504 -1.51043,-0.0815 -0.81491,-0.0312 -1.72931,-0.0724 -2.032,-0.0917 -0.51153,-0.0325 -1.24322,-0.0518 -6.60399,-0.17411 -1.09432,-0.025 -2.10397,-0.0611 -2.24367,-0.0802 -0.1397,-0.0191 -1.07315,-0.0593 -2.07433,-0.0892 -3.91946,-0.11711 -4.56761,-0.84478 -4.70269,-5.27965 -0.0278,-0.9123 -0.1044,-2.07784 -0.17024,-2.59007 -0.0658,-0.51223 -0.15859,-1.59808 -0.20609,-2.413 -0.0475,-0.81492 -0.0957,-1.55785 -0.10717,-1.65096 -0.0353,-0.28731 2.28774,0.12401 3.64481,0.64536 0.12597,0.0484 0.80054,0.23683 1.49904,0.41875 0.6985,0.18191 1.6129,0.42673 2.032,0.54403 0.75062,0.2101 1.21808,0.33055 4.91067,1.26534 1.02447,0.25935 2.09126,0.54669 2.37066,0.63853 1.08306,0.35601 2.83359,0.83796 3.683,1.01399 2.04562,0.42394 2.66463,0.74344 3.12373,1.61229 0.30253,0.57255 1.58353,4.62574 1.90376,6.02367 0.0642,0.28032 -3.21514,0.54927 -3.51706,0.28845 z m 26.20307,-1.53671 c 0.0576,-0.70585 0.10134,-0.99025 0.22673,-1.47341 0.0423,-0.16298 0.19542,-0.98213 0.34028,-1.82033 0.37084,-2.14584 0.6835,-2.76944 1.52937,-3.0504 0.22176,-0.0736 0.81568,-0.36603 1.31983,-0.64971 2.00652,-1.1291 3.36984,-1.8248 4.13396,-2.10956 0.78248,-0.29161 1.98161,-0.86325 2.49767,-1.19067 2.48371,-1.57584 2.68196,-1.54363 2.54543,0.41351 -0.0578,0.82876 -0.13621,2.63078 -0.17422,4.0045 -0.0967,3.49556 -0.28379,4.21901 -1.22821,4.74948 -0.42459,0.23849 -0.49701,0.25274 -3.429,0.67491 -0.34925,0.0503 -0.80645,0.12631 -1.016,0.16895 -0.20955,0.0426 -0.66675,0.11348 -1.016,0.15744 -0.34925,0.0439 -1.07315,0.13733 -1.60867,0.2075 -0.53552,0.0702 -1.12607,0.14585 -1.31233,0.16818 -0.18627,0.0223 -0.60537,0.0988 -0.93134,0.17001 -0.32596,0.0712 -0.89403,0.15625 -1.26237,0.18905 l -0.66972,0.0596 z m -132.657823,-1.3166 c -2.036528,-0.30768 -2.760463,-0.42525 -3.1115,-0.50531 l -0.402166,-0.0917 v -6.89189 -6.89189 l 0.4445,-0.0108 c 0.244475,-0.006 0.53975,-0.0212 0.656166,-0.0338 4.723975,-0.51402 4.595021,-0.72615 4.556467,7.49531 l -0.0268,5.715 -0.237419,0.51362 c -0.3629,0.78508 -0.640428,0.88868 -1.879248,0.70152 z m 16.848666,-8.72126 c -1.795066,-0.0904 -1.978906,-0.12977 -2.210312,-0.47315 -0.09968,-0.14793 -0.199929,-0.25027 -0.222765,-0.22743 -0.02284,0.0228 -0.132436,-0.15967 -0.243555,-0.40556 l -0.202035,-0.44707 -0.02325,-6.38467 c -0.02504,-6.87593 -0.02121,-6.94549 0.415591,-7.55893 0.380365,-0.53417 0.578749,-0.60206 2.570991,-0.87982 4.893919,-0.68232 4.458215,-1.48193 4.426159,8.12298 l -0.02349,7.0391 -0.197258,0.36971 c -0.517568,0.97004 -0.779678,1.02166 -4.290076,0.84484 z m 103.504997,-8.62132 c -0.16299,-0.035 -1.05834,-0.2193 -1.98967,-0.40956 -0.93133,-0.19027 -2.09338,-0.44459 -2.58233,-0.56517 -1.24655,-0.30742 -2.19713,-0.52609 -3.13267,-0.72065 -0.75072,-0.15612 -2.26334,-0.51623 -9.22867,-2.19708 -1.51341,-0.36521 -3.20886,-0.76745 -3.76766,-0.89386 -0.5588,-0.12641 -1.22555,-0.2873 -1.48167,-0.35753 -0.87759,-0.24064 -2.49793,-0.61878 -3.54609,-0.82756 -0.57663,-0.11486 -1.47198,-0.3237 -1.98966,-0.4641 -0.51769,-0.14039 -1.24605,-0.33502 -1.61858,-0.4325 -1.69855,-0.44446 -2.65392,-1.06762 -3.10234,-2.02355 -0.26628,-0.56764 -0.41133,-0.91507 -0.41185,-0.98646 -2.9e-4,-0.0395 -0.0494,-0.16712 -0.10922,-0.28354 -0.13654,-0.26587 -0.47019,-1.32681 -0.86535,-2.75167 -0.1679,-0.60536 -0.41478,-1.42451 -0.54863,-1.82033 -0.13385,-0.39582 -0.43925,-1.34832 -0.67867,-2.11667 -0.23943,-0.76835 -0.48663,-1.5113 -0.54935,-1.651 -0.14804,-0.32978 -0.65386,-1.78297 -1.03146,-2.96333 -0.16386,-0.51223 -0.34771,-1.04563 -0.40856,-1.18533 -0.0609,-0.1397 -0.17647,-0.42545 -0.25694,-0.635 -0.0805,-0.20955 -0.1937,-0.4953 -0.25163,-0.635 -0.0579,-0.1397 -0.18639,-0.4931 -0.28546,-0.78533 -0.0991,-0.29222 -0.21404,-0.59702 -0.25548,-0.67733 -0.0414,-0.0803 -0.1412,-0.31746 -0.22169,-0.52701 -0.14579,-0.37954 -0.27739,-0.69837 -0.45429,-1.10067 -0.1702,-0.38705 -0.70176,-1.81746 -0.7463,-2.00824 -0.0241,-0.10336 -0.0968,-0.23185 -0.16149,-0.28554 -0.0647,-0.0537 -0.11762,-0.14881 -0.11762,-0.21138 0,-0.0626 -0.0614,-0.25792 -0.13638,-0.43413 -0.075,-0.1762 -0.18515,-0.43467 -0.24475,-0.57437 -0.0596,-0.1397 -0.18577,-0.4445 -0.28039,-0.67734 -0.0946,-0.23283 -0.31245,-0.72813 -0.4841,-1.10066 -0.171649,-0.37253 -0.403204,-0.87736 -0.514569,-1.12183 -0.111365,-0.24448 -0.297731,-0.64821 -0.414148,-0.89717 -0.116417,-0.24897 -0.211667,-0.4783 -0.211667,-0.50961 0,-0.0519 -0.179063,-0.43649 -1.20775,-2.593725 -0.188748,-0.395816 -0.343469,-0.767291 -0.343825,-0.8255 -3.56e-4,-0.05821 -0.02681,-0.105833 -0.05878,-0.105833 -0.03197,0 -0.427092,-0.733425 -0.878039,-1.629833 -0.450947,-0.896409 -0.916856,-1.801283 -1.035353,-2.010833 -0.118496,-0.20955 -0.385667,-0.70485 -0.593711,-1.100667 -0.208045,-0.395817 -0.457125,-0.853017 -0.553512,-1.016 -0.09639,-0.162983 -0.332623,-0.592024 -0.524971,-0.953425 -0.192348,-0.3614 -0.436085,-0.8186 -0.541637,-1.016 -0.105553,-0.197399 -0.229378,-0.371608 -0.275167,-0.38713 -0.04579,-0.01552 -0.08325,-0.06498 -0.08325,-0.109901 0,-0.04492 -0.124186,-0.279873 -0.275969,-0.522111 -0.151782,-0.242238 -0.332757,-0.554733 -0.402166,-0.694433 -0.06941,-0.1397 -0.155548,-0.2921 -0.19142,-0.338666 -0.184647,-0.2397 -0.766573,-1.203475 -0.960348,-1.59051 -0.121571,-0.24282 -0.312027,-0.562773 -0.423235,-0.711008 -0.111207,-0.148235 -0.202196,-0.288415 -0.202196,-0.311513 0,-0.0231 -0.1524,-0.271438 -0.338666,-0.551868 -0.186267,-0.28043 -0.338667,-0.546649 -0.338667,-0.591598 0,-0.04495 -0.04762,-0.09775 -0.105833,-0.117346 -0.08362,-0.02814 -0.08261,-0.06376 0.0048,-0.169686 0.149632,-0.181318 2.242066,-0.0067 6.451029,0.538453 0.721783,0.09348 1.921933,0.241483 2.667,0.328892 0.745066,0.08741 1.69757,0.199905 2.11667,0.249991 1.99594,0.238532 2.93508,0.342302 3.57716,0.395261 l 0.6985,0.05761 v -0.249445 c 0,-0.137195 -0.13473,-0.723698 -0.2994,-1.30334 -0.16467,-0.579642 -0.39209,-1.442839 -0.50539,-1.918216 -0.1133,-0.475377 -0.26279,-1.000244 -0.33221,-1.166372 -0.20969,-0.501876 -0.72566,-2.727953 -0.72566,-3.130783 0,-0.360688 0.0787,-0.376928 1.18533,-0.244709 0.48895,0.05842 1.4605,0.16739 2.159,0.242161 0.6985,0.07477 2.05105,0.248659 3.00567,0.386417 0.95461,0.137758 2.04046,0.286756 2.413,0.331106 4.99699,0.594895 4.66132,0.497196 6.51325,1.895708 0.74841,0.565173 1.51315,1.128636 1.69941,1.252141 0.18627,0.123504 0.43392,0.302303 0.55033,0.397331 0.11642,0.09503 0.90079,0.698651 1.74305,1.341384 0.84226,0.642732 1.81381,1.389184 2.159,1.658782 0.80163,0.626081 3.72887,2.836941 4.08544,3.085615 0.27676,0.193018 0.40282,0.213081 2.76518,0.440088 0.48895,0.04698 2.16535,0.236167 3.72533,0.420405 1.55999,0.184238 3.10304,0.358832 3.429,0.387987 0.32597,0.02916 0.91652,0.09065 1.31234,0.136659 0.39581,0.04601 0.92921,0.103532 1.18533,0.127833 0.7811,0.07411 0.81178,0.09181 1.31239,0.756966 0.26468,0.351666 0.57396,0.739451 0.68729,0.861743 0.11334,0.122293 0.28879,0.35859 0.38989,0.525105 0.1011,0.166515 0.20674,0.321804 0.23475,0.345088 0.0573,0.0476 0.90337,1.231333 1.35385,1.89408 0.16234,0.238839 0.32426,0.446953 0.35983,0.462475 0.0356,0.01552 0.0647,0.07022 0.0647,0.121543 0,0.05133 0.071,0.171977 0.15786,0.268111 0.21413,0.237082 1.40327,2.000656 1.47372,2.185624 0.031,0.08149 0.0957,0.148166 0.14376,0.148166 0.048,0 0.0873,0.05423 0.0873,0.120504 0,0.06628 0.0872,0.228202 0.1938,0.359834 0.10659,0.131631 0.24145,0.334579 0.29969,0.450996 0.1551,0.310039 0.68227,1.150331 1.12659,1.795742 0.0869,0.12617 0.15792,0.25578 0.15792,0.28801 0,0.0322 0.16611,0.3481 0.36914,0.70193 0.20302,0.35382 0.59019,1.06242 0.86036,1.57465 0.27018,0.51224 0.51442,0.95039 0.54276,0.97367 0.0283,0.0233 0.0987,0.13758 0.15627,0.254 0.0576,0.11641 0.29433,0.55456 0.52604,0.97366 0.54012,0.97696 0.9321,1.76965 0.9321,1.88498 0,0.0498 0.0335,0.10328 0.0744,0.1188 0.0948,0.036 0.60296,1.12284 0.60296,1.2897 0,0.069 0.0325,0.14563 0.0723,0.17021 0.0653,0.0403 0.9881,1.86308 1.44941,2.86283 0.10147,0.21991 0.15644,0.44851 0.12216,0.508 -0.0343,0.0595 -0.0312,0.0799 0.007,0.0454 0.0923,-0.0836 0.46725,0.69805 1.22844,2.56039 0.45386,1.11042 0.59194,1.43307 0.85147,1.98966 0.0868,0.18627 0.26497,0.66252 0.39582,1.05834 0.13084,0.39581 0.27395,0.77681 0.31801,0.84666 0.0945,0.14977 0.60981,1.60583 1.03382,2.921 0.16514,0.51224 0.33203,1.00754 0.37087,1.10067 0.12562,0.30124 0.5823,1.66801 0.89113,2.667 0.16555,0.53552 0.33596,1.00986 0.37868,1.0541 0.0427,0.0442 0.0777,0.17949 0.0777,0.30057 0,0.12107 0.0355,0.25633 0.0788,0.30056 0.16688,0.1703 0.43445,1.45206 0.43698,2.09334 0.004,1.01788 -0.24984,1.38216 -1.23547,1.77289 -0.18626,0.0738 -0.66251,0.28475 -1.05833,0.46868 -1.00746,0.46816 -3.59756,1.46053 -3.81201,1.46053 -0.0467,0 -0.15111,0.0388 -0.23197,0.0863 -0.18623,0.10925 -1.39194,0.54302 -2.22135,0.79915 -0.34925,0.10785 -1.30175,0.4259 -2.11667,0.70679 -0.81492,0.28089 -1.95792,0.65013 -2.54,0.82054 -0.58208,0.1704 -1.19168,0.36192 -1.35467,0.42559 -0.38482,0.15033 -1.55521,0.49685 -2.413,0.71442 -0.37253,0.0945 -0.9605,0.24818 -1.3066,0.34153 -0.64213,0.17319 -1.17046,0.20013 -1.69906,0.0866 z m 1.47774,-11.17521 c 0.98006,-0.0453 2.71537,-0.12191 3.85626,-0.17032 1.14088,-0.0484 2.39818,-0.10588 2.794,-0.12772 0.39581,-0.0218 1.61501,-0.0799 2.70933,-0.1291 1.09432,-0.0492 2.50617,-0.1261 3.13746,-0.17097 0.63128,-0.0449 1.39969,-0.0816 1.70757,-0.0816 0.66203,0 0.82764,-0.0506 0.82764,-0.25297 0,-0.38052 -2.00526,-5.88183 -2.83963,-7.79037 -0.49878,-1.14088 -1.0318,-2.36008 -1.18449,-2.70933 -0.29448,-0.67354 -0.84356,-1.9135 -1.31223,-2.96333 -0.15592,-0.34925 -0.65178,-1.3589 -1.10193,-2.24367 -0.45014,-0.88477 -1.0789,-2.12302 -1.39724,-2.75167 -0.31835,-0.62865 -0.81918,-1.55477 -1.11298,-2.05804 -0.29379,-0.50328 -0.53417,-0.92732 -0.53417,-0.94231 0,-0.0785 -1.56802,-2.7124 -2.84163,-4.773217 l -0.27805,-0.449906 -0.55018,1.127239 c -0.3026,0.619982 -0.82172,1.637864 -1.1536,2.261954 -0.33188,0.62409 -0.83572,1.59564 -1.11964,2.159 -0.28392,0.56336 -0.88624,1.72913 -1.3385,2.59062 -0.45225,0.86148 -1.34689,2.57598 -1.98809,3.81 -0.64119,1.23401 -1.51799,2.91041 -1.94843,3.72533 -0.43044,0.81492 -1.23119,2.35797 -1.77945,3.429 -0.54827,1.07103 -1.3575,2.65218 -1.79829,3.51367 -0.4408,0.86148 -0.92681,1.79493 -1.08004,2.07433 -1.31553,2.39879 -1.33233,2.46248 -0.65527,2.48457 0.61599,0.0201 5.30156,0.33466 6.37117,0.42772 1.16452,0.10131 2.58295,0.10472 4.61041,0.0111 z m -1.98574,-18.75602 c 0,-0.0233 0.019,-0.0423 0.0423,-0.0423 0.0233,0 0.0423,0.019 0.0423,0.0423 0,0.0233 -0.019,0.0423 -0.0423,0.0423 -0.0233,0 -0.0423,-0.0191 -0.0423,-0.0423 z m -29.49142,14.859 c 0.55804,-0.48895 1.6941,-1.4605 2.52458,-2.159 0.83047,-0.6985 1.95138,-1.65021 2.4909,-2.11492 0.53951,-0.46471 1.07619,-0.92693 1.19261,-1.02715 0.23997,-0.20658 1.82522,-1.55407 2.57869,-2.19193 0.5201,-0.44029 0.67357,-0.56931 3.31207,-2.78452 0.88123,-0.73985 1.64073,-1.38755 1.68777,-1.43933 0.047,-0.0518 0.37089,-0.34168 0.71967,-0.64422 0.34877,-0.30255 0.71033,-0.61998 0.80346,-0.70541 0.0931,-0.0854 0.49318,-0.42815 0.889,-0.76159 0.39582,-0.33345 1.23402,-1.04501 1.86267,-1.58126 0.62865,-0.53624 1.4859,-1.26036 1.905,-1.60915 0.4191,-0.34879 0.78105,-0.6561 0.80433,-0.68291 0.0233,-0.0268 0.99483,-0.86281 2.159,-1.85776 1.16417,-0.99495 2.13572,-1.83038 2.159,-1.8565 0.0233,-0.0261 0.61227,-0.523713 1.30885,-1.105754 0.69659,-0.582042 1.38135,-1.163032 1.5217,-1.291091 0.14036,-0.128058 0.2848,-0.232833 0.32099,-0.232833 0.0362,0 0.0658,-0.03507 0.0658,-0.07794 0,-0.116434 -0.28056,-0.155963 -2.45533,-0.345939 -1.96974,-0.172065 -7.77123,-0.725508 -8.42433,-0.803653 -0.51824,-0.06201 -2.65101,-0.292172 -3.175,-0.342639 -0.25612,-0.02467 -0.61807,-0.06045 -0.80434,-0.07952 -0.18626,-0.01907 -1.23401,-0.113972 -2.32833,-0.210897 -2.78516,-0.246686 -5.28503,-0.487841 -7.06966,-0.681993 -0.8382,-0.09119 -1.73355,-0.186101 -1.98967,-0.210918 -0.25612,-0.02482 -0.61807,-0.0637 -0.80433,-0.08641 -0.18627,-0.02271 -1.23402,-0.117367 -2.32834,-0.210355 -1.09431,-0.09299 -2.44686,-0.208419 -3.00566,-0.256514 -0.5588,-0.0481 -2.6924,-0.260401 -4.74134,-0.471791 -2.04893,-0.21139 -4.01108,-0.410603 -4.36033,-0.442695 l -0.635,-0.05835 1.58717,3.176972 c 0.872944,1.747334 1.70011,3.443671 1.83815,3.76964 0.13804,0.32597 0.4656,1.06892 0.7279,1.651 0.2623,0.58209 0.56455,1.28694 0.67166,1.56634 0.10711,0.2794 0.34866,0.83184 0.53677,1.22766 0.38531,0.81074 1.72819,4.02736 2.08546,4.99533 0.1289,0.34925 0.36734,0.9779 0.52986,1.397 0.75527,1.94764 1.37162,3.63389 2.01155,5.50334 0.64166,1.87448 2.05848,6.11666 2.1301,6.37784 0.0332,0.12116 -0.008,0.15401 1.69696,-1.34018 z m 34.31742,-26.627661 c 0,-0.02328 -0.019,-0.04233 -0.0423,-0.04233 -0.0233,0 -0.0423,0.01905 -0.0423,0.04233 0,0.02328 0.0191,0.04233 0.0423,0.04233 0.0233,0 0.0423,-0.01905 0.0423,-0.04233 z M 89.859477,84.326093 c 0,-0.02328 -0.01905,-0.04233 -0.04233,-0.04233 -0.02328,0 -0.04233,0.01905 -0.04233,0.04233 0,0.02328 0.01905,0.04233 0.04233,0.04233 0.02328,0 0.04233,-0.01905 0.04233,-0.04233 z M 60.942308,128.23166 c -0.662263,-0.10631 -1.33126,-0.66158 -1.792238,-1.48757 l -0.236258,-0.42333 -0.02263,-9.35567 c -0.02974,-12.29618 -0.142989,-11.73521 2.562631,-12.69428 4.22566,-1.49789 5.783454,-1.98645 6.031021,-1.89145 0.195668,0.0751 0.252404,0.2837 0.524363,1.92806 0.14633,0.88477 0.434753,2.31352 0.640939,3.175 0.206187,0.86149 0.452943,2.00449 0.548347,2.54 0.286573,1.60858 0.515922,2.80535 0.646014,3.37099 0.207415,0.90185 0.778966,3.83104 0.87864,4.50301 0.0518,0.34925 0.148484,0.8255 0.214843,1.05834 0.06636,0.23283 0.1357,0.55668 0.15409,0.71966 0.01839,0.16299 0.05549,0.35349 0.08244,0.42334 0.08422,0.21826 0.386014,1.45976 0.473367,1.94733 0.04589,0.25612 0.16357,0.92287 0.261521,1.48167 0.195586,1.1158 0.457802,2.38505 0.631812,3.05826 0.164842,0.63774 -0.385138,0.77811 -3.933066,1.00384 -0.442384,0.0281 -1.051984,0.0851 -1.354667,0.12669 -0.302683,0.0415 -0.912283,0.0989 -1.354667,0.12752 -1.150119,0.0744 -2.558425,0.20162 -3.344333,0.30221 -1.054523,0.13498 -1.245626,0.14522 -1.61217,0.0864 z m 14.59216,-1.33176 c -0.167546,-0.046 -0.272887,-0.35193 -0.403513,-1.17181 -0.05194,-0.32597 -0.222927,-1.25942 -0.379984,-2.07433 -0.157056,-0.81492 -0.311668,-1.67217 -0.343583,-1.905 -0.03191,-0.23284 -0.106846,-0.54056 -0.166515,-0.68382 -0.05967,-0.14327 -0.2466,-1.01957 -0.415402,-1.94734 -0.168803,-0.92776 -0.381872,-2.02974 -0.473487,-2.44884 -0.09162,-0.4191 -0.187452,-0.8763 -0.212968,-1.016 -0.07593,-0.41572 -0.106974,-0.55849 -0.28619,-1.31631 -0.219208,-0.92692 -0.236195,-1.00988 -0.475932,-2.32436 -0.110408,-0.60537 -0.277555,-1.44357 -0.371438,-1.86267 -0.09388,-0.4191 -0.193004,-0.97155 -0.220269,-1.22766 -0.02726,-0.25612 -0.08521,-0.56092 -0.128772,-0.67734 -0.158864,-0.42457 -0.510749,-1.95335 -0.598002,-2.59804 -0.120241,-0.88843 -0.40208,-2.35127 -0.543439,-2.82062 -0.328629,-1.09115 -0.251031,-1.38761 0.395584,-1.51129 0.247089,-0.0473 1.268403,-0.24094 2.269586,-0.4304 1.001184,-0.18946 2.236563,-0.42532 2.745289,-0.52413 2.02004,-0.392361 2.677658,-0.0748 4.229592,2.04249 0.779755,1.0638 1.862957,2.61193 2.042119,2.91862 0.09313,0.15942 0.537024,0.89193 0.986423,1.62778 1.483186,2.42861 2.732145,4.76448 3.884279,7.26459 0.150216,0.32597 0.435869,0.93557 0.634784,1.35467 0.42455,0.8945 1.140847,2.5614 1.140847,2.65488 0,0.0357 0.08212,0.23406 0.182495,0.44072 0.258756,0.53274 1.230338,3.45935 1.349467,4.06487 0.273384,1.38959 -0.591561,3.12722 -1.94659,3.91061 l -0.474372,0.27425 -6.138333,0.0129 c -3.376083,0.007 -6.202837,-0.005 -6.281676,-0.0264 z M 134.64814,80.939426 c 0,-0.02328 0.019,-0.04233 0.0423,-0.04233 0.0233,0 0.0423,0.01905 0.0423,0.04233 0,0.02328 -0.019,0.04233 -0.0423,0.04233 -0.0233,0 -0.0423,-0.01905 -0.0423,-0.04233 z m -0.67733,-0.423333 c 0,-0.02328 0.019,-0.04233 0.0423,-0.04233 0.0233,0 0.0423,0.01905 0.0423,0.04233 0,0.02328 -0.0191,0.04233 -0.0423,0.04233 -0.0233,0 -0.0423,-0.01905 -0.0423,-0.04233 z m -0.33867,-0.169333 c 0,-0.02328 0.0191,-0.04233 0.0423,-0.04233 0.0233,0 0.0423,0.01905 0.0423,0.04233 0,0.02328 -0.0191,0.04233 -0.0423,0.04233 -0.0233,0 -0.0423,-0.01905 -0.0423,-0.04233 z m -0.16933,-0.08467 c 0,-0.02328 0.0191,-0.04233 0.0423,-0.04233 0.0233,0 0.0423,0.01905 0.0423,0.04233 0,0.02328 -0.019,0.04233 -0.0423,0.04233 -0.0233,0 -0.0423,-0.01905 -0.0423,-0.04233 z m -0.59267,-0.338667 c 0,-0.02328 0.0191,-0.04233 0.0423,-0.04233 0.0233,0 0.0423,0.01905 0.0423,0.04233 0,0.02328 -0.0191,0.04233 -0.0423,0.04233 -0.0233,0 -0.0423,-0.01905 -0.0423,-0.04233 z m -0.508,-0.254 c 0,-0.02328 0.019,-0.04233 0.0423,-0.04233 0.0233,0 0.0423,0.01905 0.0423,0.04233 0,0.02328 -0.019,0.04233 -0.0423,0.04233 -0.0233,0 -0.0423,-0.01905 -0.0423,-0.04233 z m -0.31044,-0.183444 c 0.031,-0.03105 0.0818,-0.03105 0.11289,0 0.031,0.03104 0.006,0.05644 -0.0565,0.05644 -0.0621,0 -0.0875,-0.0254 -0.0564,-0.05644 z m -0.42334,-0.254 c 0.0311,-0.03104 0.0819,-0.03104 0.11289,0 0.031,0.03104 0.006,0.05644 -0.0564,0.05644 -0.0621,0 -0.0875,-0.0254 -0.0565,-0.05644 z m -0.19755,-0.07056 c 0,-0.02328 0.019,-0.04233 0.0423,-0.04233 0.0233,0 0.0423,0.01905 0.0423,0.04233 0,0.02328 -0.019,0.04233 -0.0423,0.04233 -0.0233,0 -0.0423,-0.01905 -0.0423,-0.04233 z m -0.508,-0.169333 c 0,-0.02328 0.019,-0.04233 0.0423,-0.04233 0.0233,0 0.0423,0.01905 0.0423,0.04233 0,0.02328 -0.0191,0.04233 -0.0423,0.04233 -0.0233,0 -0.0423,-0.01905 -0.0423,-0.04233 z m -0.33867,-0.08467 c 0,-0.02328 0.0191,-0.04233 0.0423,-0.04233 0.0233,0 0.0423,0.01905 0.0423,0.04233 0,0.02328 -0.0191,0.04233 -0.0423,0.04233 -0.0233,0 -0.0423,-0.01905 -0.0423,-0.04233 z m -0.16933,-0.08467 c 0,-0.02328 0.0191,-0.04233 0.0423,-0.04233 0.0233,0 0.0423,0.01905 0.0423,0.04233 0,0.02328 -0.019,0.04233 -0.0423,0.04233 -0.0233,0 -0.0423,-0.01905 -0.0423,-0.04233 z m 1.35466,-0.169334 c 0,-0.02328 0.019,-0.04233 0.0423,-0.04233 0.0233,0 0.0423,0.01905 0.0423,0.04233 0,0.02328 -0.019,0.04233 -0.0423,0.04233 -0.0233,0 -0.0423,-0.01905 -0.0423,-0.04233 z m 0.23284,-0.01374 c 0.0582,-0.02349 0.15346,-0.02349 0.21166,0 0.0582,0.02349 0.0106,0.0427 -0.10583,0.0427 -0.11642,0 -0.16404,-0.01922 -0.10583,-0.0427 z m -2.0955,-0.07093 c 0,-0.02328 0.019,-0.04233 0.0423,-0.04233 0.0233,0 0.0423,0.01905 0.0423,0.04233 0,0.02328 -0.019,0.04233 -0.0423,0.04233 -0.0233,0 -0.0423,-0.01905 -0.0423,-0.04233 z m -0.254,-0.08467 c 0,-0.02328 0.0191,-0.04233 0.0423,-0.04233 0.0233,0 0.0423,0.01905 0.0423,0.04233 0,0.02328 -0.019,0.04233 -0.0423,0.04233 -0.0233,0 -0.0423,-0.01905 -0.0423,-0.04233 z m -0.508,-0.169333 c 0,-0.02328 0.019,-0.04233 0.0423,-0.04233 0.0233,0 0.0423,0.01905 0.0423,0.04233 0,0.02328 -0.019,0.04233 -0.0423,0.04233 -0.0233,0 -0.0423,-0.01905 -0.0423,-0.04233 z m -0.762,-0.254 c 0,-0.02328 0.019,-0.04233 0.0423,-0.04233 0.0233,0 0.0423,0.01905 0.0423,0.04233 0,0.02328 -0.019,0.04233 -0.0423,0.04233 -0.0233,0 -0.0423,-0.01905 -0.0423,-0.04233 z m -0.254,-0.08467 c 0,-0.02328 0.0191,-0.04233 0.0423,-0.04233 0.0233,0 0.0423,0.01905 0.0423,0.04233 0,0.02328 -0.019,0.04233 -0.0423,0.04233 -0.0233,0 -0.0423,-0.01905 -0.0423,-0.04233 z m -0.254,-0.08467 c 0,-0.02328 0.0191,-0.04233 0.0423,-0.04233 0.0233,0 0.0423,0.01905 0.0423,0.04233 0,0.02328 -0.019,0.04233 -0.0423,0.04233 -0.0233,0 -0.0423,-0.01905 -0.0423,-0.04233 z m -0.33867,-0.08467 c 0,-0.02328 0.019,-0.04233 0.0423,-0.04233 0.0233,0 0.0423,0.01905 0.0423,0.04233 0,0.02328 -0.0191,0.04233 -0.0423,0.04233 -0.0233,0 -0.0423,-0.01905 -0.0423,-0.04233 z m -0.22578,-0.09878 c 0.031,-0.03104 0.0819,-0.03104 0.11289,0 0.0311,0.03104 0.006,0.05644 -0.0564,0.05644 -0.0621,0 -0.0875,-0.0254 -0.0564,-0.05644 z m -0.36689,-0.07056 c 0,-0.02328 0.019,-0.04233 0.0423,-0.04233 0.0233,0 0.0423,0.01905 0.0423,0.04233 0,0.02328 -0.019,0.04233 -0.0423,0.04233 -0.0233,0 -0.0423,-0.01905 -0.0423,-0.04233 z m -0.31044,-0.09878 c 0.031,-0.03105 0.0818,-0.03105 0.11289,0 0.031,0.03104 0.006,0.05644 -0.0564,0.05644 -0.0621,0 -0.0875,-0.0254 -0.0564,-0.05644 z M 67.366367,70.765316 c 0.03104,-0.03104 0.08184,-0.03104 0.112889,0 0.03104,0.03104 0.0056,0.05644 -0.05645,0.05644 -0.06209,0 -0.08749,-0.0254 -0.05644,-0.05644 z m 0.294569,-0.08606 c 0.06112,-0.02446 0.134144,-0.02145 0.162278,0.0067 0.02813,0.02813 -0.02187,0.04815 -0.111125,0.04447 -0.09863,-0.0041 -0.118694,-0.02412 -0.05115,-0.05115 z m 0.298098,-0.08328 c 0.03104,-0.03104 0.08184,-0.03104 0.112888,0 0.03105,0.03104 0.0056,0.05644 -0.05644,0.05644 -0.06209,0 -0.08749,-0.0254 -0.05644,-0.05644 z m 0.338666,-0.08467 c 0.03104,-0.03104 0.08184,-0.03104 0.112889,0 0.03104,0.03104 0.0056,0.05644 -0.05644,0.05644 -0.06209,0 -0.08749,-0.0254 -0.05644,-0.05644 z m 0.395111,-0.07056 c 0,-0.02328 0.01905,-0.04233 0.04233,-0.04233 0.02328,0 0.04233,0.01905 0.04233,0.04233 0,0.02328 -0.01905,0.04233 -0.04233,0.04233 -0.02328,0 -0.04233,-0.01905 -0.04233,-0.04233 z m 0.620889,-0.09878 c 0.03105,-0.03104 0.08185,-0.03104 0.112889,0 0.03104,0.03104 0.0056,0.05644 -0.05644,0.05644 -0.06209,0 -0.08749,-0.0254 -0.05644,-0.05644 z m 0.649111,-0.07055 c 0,-0.02328 0.01905,-0.04233 0.04233,-0.04233 0.02328,0 0.04233,0.01905 0.04233,0.04233 0,0.02328 -0.01905,0.04233 -0.04233,0.04233 -0.02328,0 -0.04233,-0.01905 -0.04233,-0.04233 z m 0.762,-0.08467 c 0,-0.02328 0.01905,-0.04233 0.04233,-0.04233 0.02328,0 0.04233,0.01905 0.04233,0.04233 0,0.02328 -0.01905,0.04233 -0.04233,0.04233 -0.02328,0 -0.04233,-0.01905 -0.04233,-0.04233 z"
         id="path85" /></g></g></svg>
