<svg xmlns="http://www.w3.org/2000/svg" xml:space="preserve" width="586.593" height="586.593" viewBox="0 0 155.203 155.203"><path fill="#fefefe" d="M87.969 144.295c-1.15-.03-5.021-.194-5.842-.249-2.941-.196-6.163-.52-8-.804-.606-.093-1.578-.241-2.16-.328-3.035-.455-6.526-1.284-10.033-2.384-1.368-.43-8.778-2.886-9.206-3.052-.252-.098-.381-.29-1.503-2.23a629 629 0 0 0-1.905-3.259c-.644-1.094-1.68-2.86-2.302-3.924-1.268-2.17-1.795-3.008-2.164-3.442-1.383-1.63-2.007-1.957-4.933-2.579-1.649-.35-2.53-.549-3.006-.677-.557-.149-2.4-.574-3.344-.772a100 100 0 0 1-2.794-.62l-1.863-.43a103 103 0 0 1-.974-.23c-2.955-.712-3.72-.153-5.998 4.378-.854 1.699-1.74 3.415-1.97 3.814l-.416.724-1.078-.358c-.593-.198-1.755-.578-2.581-.846l-1.503-.487v-19.99c0-20.861.004-20.664-.364-21.322-.373-.666-.673-.734-2.303-.522-1.746.227-2.07.324-2.433.724-.568.628-.527-.85-.552 20.088-.018 15.185-.044 19.114-.127 19.083-.058-.022-2.02-.68-4.36-1.464L0 121.714v-13.538l.318.057c.538.097 1.19.199 2.713.424 1.696.251 1.885.221 2.249-.355.404-.64.404-.634.377-7.005l-.026-6.01-.23-.355a4 4 0 0 0-.466-.579l-.236-.225-2.116.044c-1.164.024-2.222.066-2.35.093l-.233.05V72.59l1.927-.56c1.944-.567 5.06-1.484 6.54-1.928.443-.132 1.547-.457 2.455-.722s2.323-.687 3.145-.939c8.07-2.474 8.783-2.06 12.307 7.16.17.442.568 1.471.885 2.286.607 1.557 1.198 3.09 2.517 6.52a401 401 0 0 0 2.333 5.968c.373.932.917 2.341 1.209 3.133.291.792.88 2.335 1.308 3.43.428 1.093.928 2.408 1.112 2.92 1.855 5.177 5.675 9.228 9.77 10.361 1.037.287 1.46.352 5.885.9 1.7.21 3.776.478 4.614.594l2.456.337c1.03.14 5.632.708 7.874.972.791.093 1.84.227 2.328.298 3.443.5 12.274 1.429 16.256 1.709 2.296.161 13.8.216 18.711.09 1.374-.036 4.232-.102 6.35-.146 2.12-.045 4.348-.102 4.953-.128 2.05-.087 2.962-.132 3.43-.17.256-.021 1.018-.06 1.693-.088 1.777-.07 4.231-.193 5.87-.292.784-.048 2.403-.143 3.598-.212 6.851-.397 11.328-.756 16.863-1.355 3.556-.385 3.298-.405 3.3.258.003.426.279.984.9 1.816 1.018 1.362 1.098 1.614 1.007 3.14l-.06 1.007-.309-.046c-.17-.025-.842.014-1.494.088a63 63 0 0 1-2.624.22c-1.906.117-2.453.281-2.746.828-.26.486-.495 1.692-.602 3.076a81 81 0 0 1-.298 2.836c-.119.97-.25 2.124-.29 2.567l-.211 2.244c-.311 3.29.208 3.546 5.925 2.922.889-.097.98.653.337 2.764-.514 1.686-1.148 1.982-6.671 3.12-1.236.255-.99.32-2.604-.694-1.558-.979-1.463-.892-1.398-1.27.03-.178.076-.457.101-.622l.047-.298 1.222-.13c1.988-.213 1.793.507 1.803-6.656l.008-5.773-.193-.225c-.2-.232-.356-.259-.931-.16l-.32.056.044-.328c.793-5.794.48-6.035-7.024-5.409-.233.02-.957.059-1.609.087-2.895.126-7.903.421-10.837.638-.606.045-1.977.12-3.048.168s-2.08.104-2.244.125c-.163.02-.982.06-1.82.09-3.336.116-3.622.433-4.023 4.482-.097.978-.25 2.445-.339 3.26s-.241 2.358-.338 3.43c-.204 2.239-.617 6.003-.81 7.365a285 285 0 0 0-.326 2.434c-.215 1.661-.439 2.297-.996 2.829-.664.634-.885.677-4.429.875a137 137 0 0 0-2.032.126c-.28.022-1.499.081-2.71.132-1.21.05-2.905.12-3.767.157-1.545.065-4.279.082-6.011.038m13.377-5.863c.35-.052 1.378-.17 2.286-.265 2.272-.235 2.475-.282 2.789-.638.597-.681.556-.133.556-7.333v-6.493l-.254-.267c-.14-.148-.544-.445-.898-.662a26 26 0 0 1-.988-.634c-.473-.33-1.07-.399-2.602-.301-.698.044-3.046.13-5.217.19l-3.947.11-.37.218c-1.261.743-1.158.23-1.897 9.42-.07.885-.188 2.2-.26 2.921-.262 2.613.315 3.629 2.166 3.814.944.095 7.892.03 8.636-.08M23.85 99.979c.343-.13.605-.4.855-.883l.22-.423.005-7.07.005-7.07-.254-.507c-.482-.962-.707-.993-3.895-.523-3.7.545-3.472-.041-3.406 8.735.044 5.857.05 6.024.225 6.486.222.59.753 1.172 1.082 1.188.13.006.675.037 1.21.07 1.605.097 3.694.096 3.953-.002zm101.034-.368c-.21-.06-1.048-.289-1.863-.51-.815-.22-2.263-.622-3.217-.892a281 281 0 0 0-5.334-1.45c-.722-.19-2.436-.663-3.81-1.05a301 301 0 0 0-3.853-1.057c-.745-.195-1.869-.501-2.497-.68a514 514 0 0 0-7.747-2.155c-4.563-1.208-5.163-1.432-6.277-2.34-1.05-.858-1.294-1.25-1.724-2.785-.15-.535-.407-1.43-.57-1.99a67 67 0 0 1-.617-2.2c-.1-.373-.288-1.002-.418-1.398s-.4-1.253-.597-1.905c-.433-1.427-1.671-5.14-2.357-7.07-1.178-3.313-1.562-4.365-1.624-4.444a1.7 1.7 0 0 1-.152-.381c-.086-.293-.91-2.418-1.478-3.81-1.622-3.977-2.735-6.599-3.722-8.763a87 87 0 0 1-.697-1.567c-.129-.302-.763-1.629-1.41-2.947s-1.175-2.428-1.175-2.466-.053-.114-.119-.168a.7.7 0 0 1-.172-.314 1 1 0 0 0-.137-.314c-.16-.191-.47-.697-.707-1.157a37 37 0 0 0-.929-1.59c-.378-.619-.847-1.389-1.041-1.711-.441-.732-1.711-2.695-1.859-2.874-.06-.073-.292-.403-.515-.734a60 60 0 0 0-2.389-3.305c-.974-1.267-3.424-3.882-4.634-4.947-1.252-1.102-1.562-1.35-2.4-1.915-.661-.447-1.81-1.127-1.903-1.127-.03 0-.252-.092-.493-.204a16.9 16.9 0 0 0-5.517-1.517l-1.019-.101.678-.187c2.094-.576 7.152-.766 8.509-.319.846.28 3.52 1.791 3.81 2.155.023.03.385.337.804.683.798.66 1.6 1.445 2.244 2.196.21.244.495.57.635.723s.52.616.846 1.028.622.763.657.778.063.065.063.11c0 .075.642.995.761 1.09.03.023.28.385.556.804.277.419.57.835.652.926.081.09.148.211.148.268s.032.117.071.133c.08.031.69.886.69.966 0 .028.168.305.371.615.56.85 2.267 3.617 2.643 4.282.539.953.578 1.018.777 1.27.104.133.19.288.19.345 0 .058.069.195.154.307.086.11.247.373.36.582.113.21.251.43.308.49s.193.289.304.508a88 88 0 0 0 1.309 2.39c1.08 1.927 3.671 7.157 4.593 9.27a78 78 0 0 0 1.15 2.556c.158.335.288.653.288.707s.054.199.12.322c.067.124.21.454.317.733.108.28.216.527.24.55.048.048.144.292.55 1.397.24.655.549 1.421.905 2.244.157.363.293.72 1.016 2.667.138.373.306.803.372.955.066.153.12.322.12.375s.131.46.29.907l.715 1.996c.515 1.44 1.296 3.902 1.961 6.181.906 3.105 1.328 4.052 2.088 4.689.416.348.456.379.706.54.221.141 4.308 1.241 5.247 1.412.303.055 1.465.325 2.582.6 1.118.274 2.783.672 3.7.882s2.117.502 2.667.647c1.06.28 1.753.445 2.654.628.305.061 1.353.307 2.329.546 2.835.694 3.079.752 4.06.965.512.112 1.674.383 2.582.602.908.22 1.823.43 2.032.468.947.171 2.21.423 2.75.548 1.362.316 2.185.128 9.019-2.06a194 194 0 0 0 8.247-2.91c.136-.05.536-.231.89-.404.353-.172.737-.343.853-.38 1.336-.421 1.82-1.796 1.191-3.386a14 14 0 0 1-.214-.635c-.08-.256-.2-.586-.265-.733a1.5 1.5 0 0 1-.119-.353c0-.103-1.669-5.121-1.99-5.984a24 24 0 0 1-.299-.847 5.6 5.6 0 0 0-.335-.807 2.3 2.3 0 0 1-.123-.4c-.033-.15-.095-.294-.138-.32s-.078-.108-.078-.18-.095-.32-.212-.552-.211-.457-.211-.5-.077-.25-.17-.459l-.342-.767c-.095-.213-.285-.67-.422-1.015a20 20 0 0 0-.322-.777 37 37 0 0 1-.569-1.25 81 81 0 0 0-.884-1.863c-1.364-2.806-1.61-3.327-1.61-3.413 0-.048-.029-.099-.064-.114-.036-.016-.26-.41-.497-.876s-.529-.99-.648-1.166c-.12-.176-.303-.5-.408-.72s-.213-.418-.24-.442c-.026-.023-.172-.29-.324-.592-.677-1.351-1.706-3.086-2.826-4.765-.18-.27-.326-.509-.326-.532 0-.066-1.274-1.931-1.384-2.027a2 2 0 0 1-.263-.381 4 4 0 0 0-.233-.38 46 46 0 0 1-1.215-1.694c-.089-.14-.21-.285-.269-.322s-.108-.113-.11-.17c0-.055-.113-.234-.251-.397-.554-.656-.69-.826-1.064-1.334-.215-.29-.441-.529-.503-.529s-.126-.034-.141-.076c-.164-.441-4.205-4.45-5.702-5.657-1.69-1.363-4.195-3.115-5.438-3.803-.315-.175-.6-.362-.634-.417s-.186-.15-.339-.212c-.152-.062-.296-.135-.32-.162-.1-.117-1.586-.925-1.8-.979-.128-.032-.254-.092-.28-.133-.054-.089-1.25-.657-1.856-.883-.233-.087-.442-.18-.466-.21-.023-.028-.175-.093-.338-.143-.93-.289.818-.024 2.359.357 1.12.277 4.691 1.558 4.837 1.734.024.028.347.201.72.384.372.183.696.357.72.386.023.03.212.141.421.247.367.186 1.016.586 1.103.679.023.025.347.272.72.55 2.082 1.553 5.77 4.985 7.408 6.894.256.298.566.647.688.775.123.127.28.312.348.41.069.098.256.32.415.494.344.374 1.773 2.303 2.24 3.025.182.28.373.546.425.592.052.047.45.618.886 1.27s.831 1.232.88 1.289c.174.205.259.33.42.619.091.162.31.503.489.76.836 1.201 2.712 4.285 3.348 5.503.206.396.443.834.526.973.253.426.59 1.051 1.167 2.16.302.582.636 1.21.741 1.396.106.187.478.949.828 1.694s.921 1.945 1.27 2.667c.35.722.776 1.674.948 2.116s.427 1.09.566 1.44c.14.349.483 1.263.763 2.032.28.768.657 1.797.837 2.286s.485 1.384.679 1.99c.193.605.56 1.71.814 2.455 1.203 3.516 1.456 4.44 1.894 6.936.542 3.086-.14 4.376-2.931 5.539-.324.135-1.312.598-2.197 1.028a92 92 0 0 1-4.487 2.077c-.885.387-2.19.973-2.9 1.3s-1.738.784-2.286 1.014c-.547.23-1.51.636-2.138.903-2.078.884-2.321.98-3.208 1.274-.942.312-1.272.342-1.872.171"/><path fill="#d82427" d="M89.569 115.188c-.021-.02-1.23-.08-2.686-.133-1.457-.052-2.713-.108-2.792-.123a22 22 0 0 0-1.16-.082c-1.12-.06-2.47-.173-3.64-.303a699 699 0 0 1-4.403-.509c-.908-.11-3.335-.384-4.487-.506a33 33 0 0 1-1.651-.221 31 31 0 0 0-1.44-.203c-.92-.102-3.343-.39-4.204-.5-1.978-.253-2.773-.35-3.5-.433a48 48 0 0 1-1.313-.166c-.279-.042-.87-.119-1.312-.172s-.88-.11-.974-.127a114 114 0 0 0-2.751-.385c-.396-.052-1.082-.145-1.524-.207a37 37 0 0 0-1.355-.166c-7.866-.739-11.667-3.588-14.517-10.882-1.9-4.863-2.273-5.844-2.721-7.155a32 32 0 0 0-.706-1.82c-.23-.535-.517-1.24-.639-1.566a71 71 0 0 0-.338-.89c-.064-.162-.35-.905-.636-1.65a476 476 0 0 0-1.1-2.837c-.88-2.24-1.725-4.44-2.034-5.291-.153-.42-.46-1.2-.684-1.736a51 51 0 0 1-.716-1.82c-.17-.466-.51-1.361-.757-1.99s-.55-1.41-.675-1.736c-1.358-3.566-4.073-5.172-7.169-4.239-.53.16-1.21.353-1.513.43-.5.128-1.358.39-2.625.804-.256.084-.98.291-1.609.462-.628.17-1.79.513-2.582.762s-1.706.53-2.032.625-1.26.37-2.074.612a513 513 0 0 1-5.228 1.518c-.012 0-.019-4.391-.015-9.758l.006-9.758.767-.38c.423-.21 1.477-.796 2.344-1.302s2.147-1.234 2.845-1.619a127 127 0 0 0 2.667-1.523 98 98 0 0 1 2.413-1.375c1.494-.811 3.488-1.943 6.586-3.737.734-.426 1.354-.774 1.377-.774s.19-.093.37-.207.932-.539 1.67-.943c.739-.405 1.552-.87 1.808-1.035.257-.165.866-.516 1.355-.78 1.64-.888 2.434-1.336 3.527-1.992a53 53 0 0 1 1.807-1.035 74 74 0 0 0 3.09-1.739 86 86 0 0 1 2.667-1.52c.257-.142.904-.51 1.44-.821a244 244 0 0 1 3.98-2.246c.488-.27 1.079-.612 1.311-.761 3.575-2.286 6.904-3.538 8.933-3.358 5.91.522 11.066 4.27 16.685 12.129.505.706.838 1.196 1.202 1.768.163.256.63.98 1.037 1.609.928 1.431 2.073 3.272 2.073 3.331 0 .025.292.532.648 1.127.357.596.91 1.617 1.231 2.27.32.654.62 1.255.665 1.336.15.27 1.41 2.81 1.544 3.112.178.398 1.122 2.606 1.431 3.344.137.326.508 1.145.824 1.82.317.676.702 1.552.856 1.948.153.396.306.757.339.804s.109.237.169.423c.131.41 1.044 2.686 1.477 3.683.171.396.427 1.025.568 1.397s.353.925.471 1.228a85 85 0 0 1 .707 1.947c.27.769.647 1.816.838 2.329.719 1.925 1.174 3.265 2.03 5.969.332 1.047.79 2.495 1.02 3.217.228.722.496 1.617.594 1.99.098.372.248.906.333 1.185.085.28.277.965.426 1.524.734 2.738.958 3.187 2.019 4.05.94.767 1.18.892 2.462 1.289l2.039.63c.442.136 1.433.405 2.201.597 1.316.328 3.077.809 4.318 1.179.303.09 1.008.283 1.566.43.56.146 1.302.356 1.651.466.35.11 1.226.353 1.948.54 1.247.322 2.672.711 3.598.982.233.068.925.256 1.537.419.613.162 1.282.351 1.487.421s.619.183.918.252c.485.111 2.016.516 4.016 1.06.372.102 1.115.318 1.65.481.537.163 1.718.487 2.626.72.908.234 1.97.517 2.36.63 1.237.358 1.654.269 4.59-.987.96-.41 2.122-.897 2.583-1.08a38 38 0 0 0 1.585-.683c.41-.19.762-.347.782-.347s.618-.27 1.329-.6c.71-.33 1.812-.824 2.447-1.098 1.13-.488 1.855-.826 4.602-2.148a97 97 0 0 1 1.524-.723c2.614-1.114 3.522-2.474 3.095-4.634a136 136 0 0 1-.306-1.676c-.278-1.566-.598-2.824-1.056-4.15-.193-.558-.56-1.663-.817-2.455a178 178 0 0 0-1.904-5.503c-.188-.512-.448-1.236-.578-1.609a56 56 0 0 0-1.712-4.233c-.842-1.818-3.192-6.536-3.77-7.57a52 52 0 0 1-.833-1.545c-.811-1.612-3.484-5.855-5.536-8.792a96 96 0 0 1-1.152-1.684c-.69-1.041-1.854-2.586-2.488-3.303-2.47-2.792-3.277-3.647-4.639-4.913-1.693-1.575-1.337-1.63.614-.096 2.289 1.8 6.108 5.759 8.264 8.568.344.45.988 1.284 1.43 1.857 2.419 3.128 5.02 7.4 7.161 11.763.766 1.56 1.502 3.046 1.636 3.302s.728 1.685 1.318 3.175 1.186 2.982 1.321 3.315c.332.815 1.005 2.778 1.434 4.178l.596 1.947c.571 1.863.678 2.234.926 3.225.144.572.374 1.595.512 2.273.139.679.366 1.71.506 2.292.42 1.745.567 2.505.803 4.148.124.862.261 1.707.305 1.879.12.467.499 3.835.588 5.233.043.676.12 1.59.171 2.032.193 1.661.167 8.332-.039 10.16-.024.21-.065.877-.093 1.482-.09 1.954.112 1.774-2.278 2.04-5.208.579-9.584.973-12.623 1.138a86 86 0 0 0-2.455.164c-.466.043-1.57.12-2.456.17-.884.05-2.142.127-2.794.17-.651.045-1.718.104-2.37.132s-1.3.066-1.44.083c-.14.016-.958.053-1.82.08-.861.029-2.176.086-2.92.13-3.407.195-5.459.253-12.997.368-2.259.035-4.908.1-5.888.144-1.767.08-10.051.115-10.123.043m23.955-3.76c.034-.235-.228-1.202-.967-3.569-1.131-3.626-1.067-3.556-3.947-4.27a80 80 0 0 1-2.395-.625c-1.52-.456-2.584-.745-5.334-1.452-4.398-1.13-6.48-1.684-6.858-1.824-.493-.18-3.334-.888-3.568-.888-.169 0-.2.043-.2.275-.003.523.178 2.819.307 3.916.07.605.162 1.958.203 3.005.101 2.622.263 3.215 1.129 4.13.865.916.824.909 6.193 1.078 4.324.136 7.436.243 9.736.336 1.444.058 3.31.102 4.15.096l1.523-.01zm23.806-.82c.442-.07 2.1-.314 3.683-.543 8.119-1.173 7.502-.661 7.663-6.355.043-1.513.119-3.256.169-3.872.141-1.732.145-1.73-2.052-.522-1.411.776-2.491 1.309-3.193 1.574-.59.223-2.79 1.314-3.139 1.555-.289.2-2.22 1.18-2.329 1.18-.485.004-1.059 1.029-1.307 2.335-.097.509-.289 1.497-.425 2.195-.542 2.764-.57 2.69.93 2.453M46.228 82.972c.909-.091 2.585-.247 3.726-.345 2.534-.219 5.214-.499 5.38-.562.167-.064.163-.105-.164-1.62a77 77 0 0 1-.471-2.389 43 43 0 0 0-.31-1.608c-.07-.303-.219-.989-.332-1.524-.114-.536-.263-1.222-.332-1.524a72 72 0 0 1-.377-1.905 99 99 0 0 0-.475-2.37 76 76 0 0 1-.587-2.964c-.354-1.91-.585-3.036-.807-3.937a53 53 0 0 1-.55-2.752c-.343-1.98-.422-2.293-.593-2.358-.227-.088-1.652.354-5.52 1.71-3.437 1.206-3.234.38-3.215 13.094l.013 9.229.182.338c.876 1.632 1.368 1.797 4.432 1.487m25.175-1.53c1.173-.729 2.076-2.604 1.84-3.824-.478-2.47-4.001-10.542-6.146-14.082a41 41 0 0 1-.526-.889c-1.93-3.444-4.62-7.04-5.587-7.467-.532-.236-1.774-.173-3.537.179-.745.149-1.945.38-2.667.513-2 .37-1.936.283-1.485 2.02.07.27.242 1.173.382 2.006s.37 1.973.509 2.534c.14.56.327 1.42.417 1.908.418 2.268 1.375 6.887 1.487 7.18.024.061.138.674.254 1.362.117.687.309 1.666.426 2.175.32 1.375.957 4.624 1.144 5.827.148.955.019.89 1.842.917.872.013 3.742.004 6.377-.02l4.79-.042zm51.322-36.794c-1.167-.122-3.78-.42-6.647-.755-.954-.112-2.295-.258-2.98-.324l-1.244-.12-.703-.547a328 328 0 0 0-2.566-1.954 380 380 0 0 1-2.751-2.095c-1.858-1.44-2.481-1.912-2.917-2.21a66 66 0 0 1-1.708-1.26c-1.64-1.242-1.294-1.144-6.043-1.699-.35-.04-1.283-.169-2.075-.284-.791-.116-2.03-.287-2.751-.38l-2.631-.342a35 35 0 0 0-1.464-.172c-.252 0-.292.33-.126 1.054.086.375.214.954.285 1.287s.207.828.302 1.1.34 1.143.543 1.935.43 1.63.502 1.863c.313 1.008.328 1.003-2.093.717l-3.235-.383c-.977-.115-2.368-.285-3.09-.378-1.37-.175-3.445-.41-5.673-.643-.721-.075-1.363-.178-1.427-.23-.135-.109-.726-.958-1.028-1.475-.19-.326-1.584-2.383-2.596-3.831-.813-1.164-3.024-3.754-3.976-4.657-1.217-1.156-1.927-1.679-4.202-3.094-.672-.419-.489-.465 1.01-.252.474.068 1.94.257 3.26.421s2.817.371 3.33.46c.995.174 2.787.452 3.894.603.372.051 1.44.203 2.37.337 2.548.367 5.277.746 5.8.806.256.03 1.075.143 1.82.253s1.946.28 2.667.377c.722.098 1.79.252 2.371.342.582.09 1.497.226 2.032.3l2.032.29c.582.085 2.735.386 4.784.67 2.049.283 4.373.609 5.164.724.792.115 2.107.29 2.921.388 2.089.251 2.84.401 3.472.693.302.14.82.362 1.148.493.663.265 3.106 1.502 3.635 1.841.187.12.492.32.678.447.186.126.548.338.804.471.796.415 2.825 1.84 4.985 3.502 1.703 1.31 5.837 5.422 5.743 5.71-.043.132-.37.132-1.626 0"/><path d="M81.545 154.855c-.389-.191-.818-.433-.954-.537-.85-.65-2.064-1.71-3.708-3.238-.352-.327-.869-.802-1.148-1.055-2.78-2.518-3.575-3.315-3.787-3.792-.312-.7-.302-1.695.028-2.93.1-.37-.049-.355 1.346-.138 7.462 1.16 17.515 1.473 27.22.846 6.04-.39 5.715-.338 6.402-1.024.596-.597.829-1.232 1.012-2.763.088-.734.239-1.906.336-2.605.275-1.982.394-3.065.8-7.28.115-1.212.25-2.564.299-3.007.138-1.255.33-3.135.467-4.572.184-1.921.461-2.588 1.304-3.129.463-.297.58-.315 2.757-.43.932-.05 1.922-.105 2.202-.123s1.041-.056 1.693-.084 1.7-.089 2.328-.134c1.69-.12 2.175-.152 3.853-.25l2.878-.166c.746-.044 2.174-.121 3.175-.172 1.002-.05 2.373-.127 3.048-.169 7.804-.485 7.67-.557 7.32 3.929-.073.926-.116 1.726-.096 1.778.024.065-.373.098-1.33.108-.75.008-2.088.076-2.973.15-3.017.252-5.033.393-8.636.604-1.726.101-1.566-.49-1.566 5.784v5.252l-.182.17c-.1.092-.357.192-.571.221s-.714.11-1.11.18c-.671.117-1.396.2-2.836.324-.326.028-.935.088-1.355.133-.419.044-1.41.137-2.2.207-.792.069-1.935.182-2.54.252-.606.07-2.187.24-3.515.381l-2.737.29c-.419.046-.417.044-.497.688l-.135 1.097c-.038.303-.038.55 0 .55.037 0 .068.041.068.09 0 .05-.039.067-.085.038s-.084.034-.084.143c.001.16.018.173.09.068s.082-.096.057.043c-.017.093-.071.161-.12.152-.05-.01-.087.104-.082.254.004.149-.021.376-.056.504-.036.134-.029.233.018.233.044 0 .097-.067.118-.148.036-.138.04-.138.049-.002.018.265 4.695.226 6.91-.058 2.288-.293 7.615-1.167 8.361-1.371.175-.048.192-.355.06-1.07-.117-.631-.029-.798.448-.854.198-.023 1.084-.103 1.969-.178a84 84 0 0 0 2.582-.259c4.583-.574 4.695-.579 5.08-.246.871.754 1.997 1.22 2.066.855.135-.72 1.297-1.104 2.248-.742.253.096.464.166.47.155.217-.377.308-1.317.117-1.198-.041.025-.075.006-.075-.044 0-.053.203-.09.495-.09.272 0 .796-.019 1.164-.042s.631-.024.584 0c-.046.023-.484.071-.973.106l-.888.064-.085.395c-.047.218-.114.424-.149.459-.244.242.006.58.783 1.053 2.073 1.264 2.23 1.348 2.447 1.307.17-.032.183-.026.059.029-.148.064-.14.084.095.234.14.09.761.506 1.38.925s1.355.905 1.638 1.078c.74.456 1.074.816 1.123 1.216.121.976-1.032 1.555-1.857.933a8 8 0 0 0-.778-.477c-.28-.15-1.175-.713-1.99-1.25l-2.7-1.782c-1.311-.865-1.62-1.006-2.374-1.085l-.488-.051-.054.393c-.05.37-.49 1.555-1.555 4.2a77 77 0 0 0-.87 2.286c-1.06 2.953-1.087 2.973-5.802 4.108-.838.201-2.038.503-2.667.67-.629.166-1.696.438-2.37.604-.676.166-1.971.486-2.88.712-.907.226-2.07.493-2.582.594l-1.566.31c-.735.144-1.71.234-4.487.41-.924.06-1.804.125-2.286.17-.837.078-3.067.192-4.996.254-.768.025-1.702.063-2.074.085-.373.021-1.21.06-1.863.085-.652.025-1.528.063-1.947.084s-1.41.063-2.201.092c-.792.03-1.535.065-1.651.079s-.936.05-1.82.08c-.886.03-1.705.07-1.821.088-.116.019-1.126.06-2.244.09-1.117.031-2.1.07-2.184.085-.083.015-.94.052-1.905.082l-1.753.054zm16.16-10.547a.042.042 0 1 0-.042.042.04.04 0 0 0 .043-.042m.17 0a.042.042 0 1 0-.042.042.04.04 0 0 0 .042-.042m-37.839 6.05c-.733-.193-.844-.2-1.743-.122-2.263.198-3.725-.724-5.325-3.36-.772-1.271-1.71-3.946-1.877-5.351-.068-.579-.175-.697-.815-.907-.247-.082-1.63-.553-3.074-1.048a311 311 0 0 0-3.81-1.284c-1.281-.414-1.504-.493-2.305-.819l-.526-.214-.055.291c-.238 1.27-1.898 3.058-3.083 3.321-4.643 1.032-7.558-1.186-8.382-6.378-.14-.88.02-.825-1.865-.631-.907.093-2.296.177-3.088.186l-1.44.016-.804-.3a359 359 0 0 1-5.122-1.953 286 286 0 0 0-3.09-1.185c-.862-.324-2.043-.781-2.625-1.016a69 69 0 0 0-1.947-.75 144 144 0 0 1-2.244-.844 60 60 0 0 0-1.693-.632 15 15 0 0 1-.974-.38 56 56 0 0 0-1.863-.724 71 71 0 0 1-1.735-.664l-.508-.21-.023-1.837c-.022-1.73-.014-1.834.127-1.776.297.123 4.76 1.625 5.4 1.817.279.084 1.06.348 1.735.586s1.294.432 1.375.433c.14 0 .147-.973.127-18.944-.025-23.25-.434-20.479 3.092-20.934 1.479-.191 1.63-.168 2.003.306.506.644.47-.88.491 21.326l.019 20.234.193.056c.462.133 3.805 1.21 4.365 1.405.339.119.627.2.64.182.213-.293 1.016-1.817 2.311-4.386 1.928-3.825 2.235-4.22 3.581-4.614.846-.247 1.327-.174 5.975.908 1.118.26 2.585.595 3.26.742 1.396.306 1.786.395 3.09.708.512.123 1.541.355 2.286.515 1.873.403 2.134.482 2.836.85 1.206.635 2.056 1.667 3.685 4.482.27.466 1.03 1.761 1.691 2.88.66 1.117 1.601 2.717 2.091 3.555l1.487 2.54.597 1.016.791.25c.436.137.964.315 1.173.396.21.08 1.228.424 2.263.763 1.232.403 1.846.642 1.778.69q-.105.077.047.027c.082-.026.31.004.508.068 3.637 1.186 4.848 1.54 8.316 2.433.698.18 1.108.307.91.283-.319-.039-.36-.024-.36.127 0 .126.056.17.217.17q.214 0 .156-.098c-.043-.069 0-.081.143-.043.112.03.407.08.654.11.248.031.414.079.37.107-.046.028.17.055.48.06.403.008.49-.007.308-.053-.345-.086.049-.09.424-.005.348.08-.129.149-1.567.227-.582.03-1.113.064-1.181.074q-.123.018-.278.73c-1.098 5.057-3.96 7.543-7.593 6.591m-5.934-12.061a.042.042 0 0 0-.084 0 .042.042 0 0 0 .084 0m-37.93-10.753a.043.043 0 0 0-.085 0 .043.043 0 0 0 .085 0m55.525 15.394c.061-.025.134-.021.163.007s-.022.048-.112.044c-.098-.004-.118-.024-.05-.05zm-.638-.086a.5.5 0 0 1 .254.003c.057.024-.01.041-.15.04-.14-.003-.187-.021-.104-.043m-1.97-.327-.466-.114.45.047c.246.026.551.078.676.116l.228.069-.211-.002a4 4 0 0 1-.678-.116zm-1.017.005a.043.043 0 0 1 .085 0 .043.043 0 0 1-.085 0m39.963-1.186a.043.043 0 0 1 .085 0c0 .024-.02.043-.043.043a.04.04 0 0 1-.042-.043m.085-.169a.042.042 0 0 1 .084 0 .04.04 0 0 1-.042.042.04.04 0 0 1-.042-.042m0-.212c0-.062.025-.087.056-.056a.08.08 0 0 1 0 .113c-.03.03-.056.006-.056-.057m35.503-.733a.08.08 0 0 1 .113 0c.031.03.006.056-.056.056s-.088-.025-.057-.056m.29 0a.33.33 0 0 1 .211 0c.059.023.01.043-.106.043s-.164-.02-.105-.043m.423 0a.33.33 0 0 1 .212 0c.058.023.01.043-.106.043-.117 0-.164-.02-.106-.043m-36.132-.41a.043.043 0 0 1 .085 0 .04.04 0 0 1-.042.043.04.04 0 0 1-.043-.043m33.895-.098a.08.08 0 0 1 .113 0c.031.03.006.056-.056.056s-.088-.025-.057-.056m-33.895-.071a.043.043 0 0 1 .085 0 .04.04 0 0 1-.042.042.04.04 0 0 1-.043-.042m34.234-.014a.08.08 0 0 1 .113 0c.03.03.006.056-.056.056-.063 0-.088-.025-.057-.056m.423-.085a.08.08 0 0 1 .113 0c.031.031.006.057-.056.057s-.088-.026-.057-.057m.38-.086c.06-.024.134-.021.162.007s-.022.048-.111.045c-.099-.004-.119-.025-.051-.052m.423-.085c.061-.024.134-.021.162.007s-.022.048-.11.045c-.1-.004-.12-.024-.052-.051zm.339-.084c.06-.025.134-.022.162.007s-.022.048-.111.044c-.099-.004-.119-.024-.051-.051m.423-.085c.061-.025.134-.022.162.007s-.022.048-.11.044c-.1-.004-.12-.024-.052-.05zm.397-.112a1 1 0 0 1 .338-.07c.137.002.128.016-.042.07-.29.093-.512.093-.296 0m.614-.14a.33.33 0 0 1 .211 0c.059.023.01.042-.106.042s-.164-.019-.105-.042m.529-.114c.29-.092.512-.092.296 0a1 1 0 0 1-.339.07c-.136-.001-.127-.015.043-.07m1.508.027c.061-.024.134-.021.162.007s-.022.048-.11.045c-.1-.004-.12-.024-.052-.051zm.333.002a.33.33 0 0 1 .212 0c.058.024.01.043-.106.043s-.164-.02-.106-.043m.812 0a.08.08 0 0 1 .113 0c.03.03.006.056-.057.056-.062 0-.087-.025-.056-.056m-2.018-.198a1 1 0 0 1 .296-.072q.12.001-.042.072a1 1 0 0 1-.296.073q-.12-.002.042-.073m-53.307-.163c-2.688-.148-2.968-.724-2.572-5.297.117-1.35.326-3.865.465-5.588.306-3.783.292-3.69.619-4.308.592-1.122.95-1.206 5.476-1.277 1.747-.028 3.915-.09 4.819-.14 1.94-.106 2.256-.073 2.738.292.198.149.644.439.992.644.347.205.738.49.868.631l.236.259-.005 6.394c-.006 8.318.248 7.629-2.93 7.96-.878.092-2.129.228-2.78.302-1.353.154-6.073.23-7.926.128m54.055-.062a.08.08 0 0 1 .113 0c.03.03.006.056-.057.056-.062 0-.087-.025-.056-.056m.31-.07a.043.043 0 0 1 .085 0 .043.043 0 0 1-.085 0m.17-.076c0-.019.059-.056.13-.084.076-.029.11-.015.08.033-.05.08-.21.12-.21.05m.893-.75c.137-.151.282-.313.323-.36.04-.047.027.01-.032.127-.14.28-.343.508-.451.508-.049 0 .024-.124.16-.275m-26.752-.476c-.037-.059-.044-.13-.016-.158.076-.076.159.036.118.159-.029.086-.049.086-.102 0m.204-.096c0-.062.026-.087.057-.056a.08.08 0 0 1 0 .113c-.031.03-.057.006-.057-.057m26.924 0c0-.062.026-.087.057-.056a.08.08 0 0 1 0 .113c-.031.03-.057.006-.057-.057m1.113-.412c-.01-.473-.028-.527-.14-.433-.072.06-.155.082-.186.051-.031-.03.027-.115.129-.186.157-.11.185-.21.184-.654-.001-.37-.026-.487-.084-.398-.072.113-.082.113-.089 0-.052-.92-.049-1.185.014-1.185.042 0 .104-.01.139-.021s.072.074.081.19c.098 1.15.107 1.684.04 2.371-.072.759-.077.774-.088.265m-.012-2a.042.042 0 0 0-.084 0c0 .023.019.042.042.042a.04.04 0 0 0 .042-.043m-.074-.489c-.084-.083-.093-.073-.047.048.031.083.079.13.105.104s0-.094-.058-.152m-.01-.189a.043.043 0 0 0-.085 0 .042.042 0 0 0 .084 0m-28.11 2.889c0-.076.343-.115.386-.045.026.042-.05.077-.17.077-.118 0-.216-.015-.216-.033zm27.178-.053c0-.062.026-.087.057-.056a.08.08 0 0 1 0 .113c-.031.03-.057.006-.057-.057m.085-.254c0-.062.025-.087.056-.056a.08.08 0 0 1 0 .113c-.03.03-.056.006-.056-.057m-8.403-.14a.33.33 0 0 1 .211 0c.059.023.011.042-.105.042-.117 0-.165-.019-.106-.042m.36-.071a.042.042 0 0 1 .084 0 .042.042 0 0 1-.084 0m8.128-.085c0-.023.019-.042.042-.042s.042.019.042.042a.042.042 0 0 1-.084 0m-8.376-.19c.004-.09.024-.106.05-.042.023.058.078.085.12.058.043-.026.078-.008.078.042s-.058.09-.127.09c-.07 0-.124-.067-.12-.148m.564-.318c.025-.28.06-.524.076-.543.063-.072.016.719-.052.882-.042.102-.052-.032-.024-.339m7.91.127c0-.116.019-.164.042-.106a.33.33 0 0 1 0 .212c-.023.058-.042.01-.042-.106m-8.311.01c0-.058-.037-.082-.082-.054-.149.092-.184-.329-.156-1.882.023-1.357.097-1.895.214-1.566.021.058.073.085.115.06.042-.027.051.017.02.097q-.056.148.044.084c.133-.082.128.138-.007.283-.087.093-.078.104.046.06.109-.038.134-.023.087.051a.44.44 0 0 0 .014.481q.09.126-.006.068c-.06-.036-.095.07-.1.3-.022.944-.095 2.026-.14 2.07-.027.028-.05.004-.05-.053zm.085-1.746a.043.043 0 0 0-.085 0c0 .024.02.043.042.043a.04.04 0 0 0 .043-.043m-.085-.931a.043.043 0 0 0-.085 0 .043.043 0 0 0 .085 0m0-.508a.043.043 0 0 0-.085 0 .043.043 0 0 0 .085 0m8.848 3.175c.028-.047.07-.085.094-.085s.019.038-.01.085-.071.085-.094.085-.02-.038.01-.085m-.453-.423c0-.117.02-.164.043-.106a.33.33 0 0 1 0 .211c-.024.059-.043.011-.043-.105m.495-.212a.042.042 0 0 1 .084 0 .042.042 0 0 1-.084 0m-.362-.838.048-.752-.457.048c-6.027.637-6.687.33-6.26-2.92.045-.34.122-1.094.172-1.676s.127-1.344.17-1.694c.12-.96.41-3.647.508-4.71.049-.52.165-1.243.259-1.61.38-1.483.545-1.594 2.577-1.723a95 95 0 0 0 2.607-.213c1.81-.176 2.196-.14 3.743.343 2.428.757 2.16-.099 2.16 6.896v5.804l-.215.316c-.393.578-.865.724-3.215.993-1.8.207-1.8.207-1.866.272-.028.028-.071.178-.096.334-.151.94-.18 1.003-.135.292m-13.741-.285c-.625-.223-1.227-.78-1.53-1.417-.156-.33-.08-4.314.088-4.57 1.301-1.987 4.3-1.749 5.31.421 1.427 3.066-1.019 6.585-3.868 5.566m5.467-.147a.042.042 0 0 1 .084 0 .042.042 0 0 1-.084 0m-.423-1.778a.042.042 0 0 1 .084 0 .042.042 0 0 1-.084 0m0-3.133a.042.042 0 0 1 .084 0 .042.042 0 0 1-.084 0m-.064-.345c0-.113.044-.205.098-.205.137 0 .148.315.013.367q-.11.04-.111-.162m.318.007a.042.042 0 0 1 .084 0 .042.042 0 0 1-.084 0m-.318-.508c0-.117.033-.212.074-.212s.074.06.074.132c0 .083.04.109.106.069q.108-.067-.01.08-.244.301-.244-.07m.103-.277c-.163-.115-.101-.952.078-1.052.122-.068.144-.065.095.015a.124.124 0 0 0 .043.172c.06.037.083.13.054.207-.03.078-.097.115-.15.082-.06-.037-.08-.015-.054.058.023.065.085.108.138.096.13-.029.082.164-.074.303-.07.061-.08.088-.021.058s.105-.013.105.036c0 .104-.089.115-.214.025m.13-.74a.043.043 0 0 0-.085 0 .043.043 0 0 0 .085 0m-.254-3.047a.042.042 0 0 1 .084 0 .04.04 0 0 1-.042.042.04.04 0 0 1-.042-.042m.677 0a.043.043 0 0 1 .085 0 .043.043 0 0 1-.085 0m-1.1-.212c0-.046.04-.084.09-.084s.065.038.037.084c-.03.047-.07.085-.09.085s-.037-.038-.037-.085m.338-.042a.043.043 0 0 1 .085 0 .043.043 0 0 1-.085 0m.17-.05c0-.042.082-.077.183-.077s.157.026.125.059c-.092.091-.308.104-.308.018m10.532-7.625q-.054-.092.038-.038c.097.06.13.135.06.135-.02 0-.064-.044-.098-.097m-.118-.199a.042.042 0 0 1 .084 0 .04.04 0 0 1-.042.042.04.04 0 0 1-.042-.042m-.085-.17a.042.042 0 0 1 .084 0 .042.042 0 0 1-.084 0m-.085-.169a.043.043 0 0 1 .085 0c0 .024-.02.043-.043.043a.04.04 0 0 1-.042-.043m-.17-.254c0-.023.02-.042.043-.042s.042.02.042.042a.042.042 0 0 1-.084 0m.424-.127c-.108-.07-.105-.082.021-.083.082 0 .148.037.148.083 0 .104-.01.104-.169 0m-.254-.042a.043.043 0 0 1 .085 0c0 .023-.02.042-.043.042a.04.04 0 0 1-.042-.042m-.707-.572c-.66-.927-.741-1.11-.792-1.782-.046-.604.095-.936.275-.647.028.046.082.063.12.04.039-.024.093.015.12.086.032.084-.017.157-.14.206-.145.058-.154.077-.04.081.081.003.151.034.155.07.004.034.019.13.034.21q.03.15-.133.149c-.208 0-.21.143-.002.208.187.06.193.317.01.4-.107.048-.105.058.013.063.098.004.127.058.096.176-.024.093-.006.169.041.169s.108.09.136.2c.027.11.184.345.348.524.323.353.337.377.217.377-.044 0-.25-.239-.457-.53zm-.394-1.121a.042.042 0 0 0-.084 0 .042.042 0 0 0 .084 0m-.084-.17a.043.043 0 0 0-.085 0 .043.043 0 0 0 .085 0m0-.423a.043.043 0 0 0-.085 0 .043.043 0 0 0 .085 0m0-.17a.043.043 0 0 0-.085 0 .043.043 0 0 0 .085 0m1.27 2.287a.042.042 0 0 1 .084 0 .042.042 0 0 1-.084 0m.254-.043c0-.062.025-.087.056-.056a.08.08 0 0 1 0 .113c-.03.03-.056.006-.056-.057m-.508-.042c0-.023.019-.042.042-.042a.042.042 0 0 1 0 .084.04.04 0 0 1-.042-.042m-.762-1.016c0-.023.019-.042.042-.042a.042.042 0 0 1 0 .084.04.04 0 0 1-.042-.042m-40.315-2.366c-.016-.014-.696-.05-1.51-.082-.816-.03-1.73-.072-2.033-.091-.511-.033-1.243-.052-6.604-.174-1.094-.025-2.104-.062-2.243-.08-.14-.02-1.073-.06-2.075-.09-3.919-.117-4.567-.845-4.702-5.28-.028-.912-.105-2.077-.17-2.59a44 44 0 0 1-.207-2.413 75 75 0 0 0-.107-1.65c-.035-.288 2.288.123 3.645.645.126.048.8.237 1.5.419.698.181 1.612.426 2.031.544.75.21 1.218.33 4.91 1.265 1.025.26 2.092.547 2.371.638 1.083.356 2.834.838 3.683 1.014 2.046.424 2.665.744 3.124 1.613.303.572 1.584 4.625 1.904 6.023.064.28-3.215.55-3.517.289m26.203-1.537c.057-.706.101-.99.227-1.473.042-.163.195-.982.34-1.82.37-2.146.683-2.77 1.53-3.051.221-.074.815-.366 1.32-.65 2.006-1.129 3.369-1.825 4.133-2.11.783-.29 1.982-.863 2.498-1.19 2.483-1.576 2.682-1.544 2.545.414-.058.828-.136 2.63-.174 4.004-.097 3.496-.284 4.22-1.228 4.75-.425.238-.497.252-3.43.674-.349.05-.806.127-1.015.17a17 17 0 0 1-1.016.157c-.35.044-1.073.137-1.609.207-.535.07-1.126.146-1.312.169a12 12 0 0 0-.932.17c-.326.07-.894.156-1.262.189l-.67.06zM3.516 108.691c-2.036-.308-2.76-.426-3.111-.506l-.403-.091V94.31l.445-.011c.244-.006.54-.021.656-.034 4.724-.514 4.595-.726 4.557 7.495l-.027 5.715-.238.514c-.363.785-.64.889-1.879.702m16.849-8.722c-1.795-.09-1.98-.13-2.21-.473-.1-.148-.2-.25-.223-.227s-.133-.16-.244-.406l-.202-.447-.023-6.385c-.025-6.876-.021-6.945.415-7.559.38-.534.58-.602 2.571-.88 4.894-.682 4.459-1.481 4.427 8.124l-.024 7.039-.197.37c-.518.97-.78 1.021-4.29.844m103.505-8.621c-.163-.035-1.059-.22-1.99-.41a87 87 0 0 1-2.582-.565 85 85 0 0 0-3.133-.72c-.75-.157-2.263-.517-9.229-2.198a402 402 0 0 0-3.767-.893 46 46 0 0 1-1.482-.358 63 63 0 0 0-3.546-.827 36 36 0 0 1-1.99-.465c-.517-.14-1.246-.335-1.618-.432-1.699-.445-2.654-1.068-3.103-2.024-.266-.567-.41-.915-.411-.986 0-.04-.05-.167-.11-.284-.136-.265-.47-1.326-.865-2.751a43 43 0 0 0-.549-1.82c-.133-.396-.439-1.349-.678-2.117-.24-.769-.487-1.512-.55-1.651-.148-.33-.654-1.783-1.031-2.964a21 21 0 0 0-.409-1.185 19 19 0 0 1-.257-.635 33 33 0 0 0-.251-.635c-.058-.14-.187-.493-.286-.785a8 8 0 0 0-.255-.678 8 8 0 0 1-.222-.527 23 23 0 0 0-.454-1.1c-.17-.387-.702-1.818-.746-2.009a.6.6 0 0 0-.162-.285c-.065-.054-.118-.149-.118-.211 0-.063-.061-.258-.136-.435l-.245-.574c-.06-.14-.185-.444-.28-.677a33 33 0 0 0-.484-1.1l-.515-1.123c-.111-.244-.298-.648-.414-.897s-.212-.478-.212-.51c0-.051-.179-.436-1.207-2.593-.19-.396-.344-.768-.344-.826s-.027-.106-.059-.106-.427-.733-.878-1.63a85 85 0 0 0-1.035-2.01c-.119-.21-.386-.705-.594-1.101a33 33 0 0 0-.554-1.016 33 33 0 0 1-.525-.953l-.541-1.016c-.106-.198-.23-.372-.275-.388-.046-.015-.084-.064-.084-.11 0-.044-.124-.28-.276-.522a11 11 0 0 1-.402-.694 3 3 0 0 0-.191-.339c-.185-.24-.767-1.203-.96-1.59a6 6 0 0 0-.424-.711c-.11-.148-.202-.289-.202-.312s-.152-.271-.339-.552c-.186-.28-.338-.546-.338-.591s-.048-.098-.106-.117c-.084-.029-.083-.064.005-.17.15-.181 2.242-.007 6.45.538a271 271 0 0 0 2.668.33c.745.087 1.697.2 2.116.25 1.996.238 2.935.341 3.578.394l.698.058v-.25c0-.137-.135-.723-.3-1.303a57 57 0 0 1-.505-1.918c-.113-.475-.263-1-.332-1.166-.21-.502-.726-2.728-.726-3.131 0-.36.08-.377 1.186-.245.489.059 1.46.168 2.159.242.698.075 2.05.249 3.005.387s2.04.287 2.413.33c4.997.596 4.662.498 6.514 1.897a63 63 0 0 0 1.7 1.252c.185.123.433.302.55.397.116.095.9.699 1.742 1.341.843.643 1.814 1.39 2.16 1.66.801.625 3.728 2.836 4.085 3.085.277.193.403.213 2.765.44.489.047 2.165.236 3.725.42 1.56.185 3.103.36 3.43.388.325.03.916.091 1.312.137s.929.104 1.185.128c.781.074.812.092 1.312.757.265.351.574.74.688.862s.289.358.39.525c.1.166.206.321.234.345.058.047.904 1.231 1.354 1.894.163.239.324.447.36.462s.065.07.065.122.07.172.158.268c.214.237 1.403 2 1.473 2.186.031.081.096.148.144.148s.087.054.087.12.088.228.194.36.242.335.3.451c.155.31.682 1.15 1.126 1.796.087.126.158.256.158.288s.167.348.37.702.59 1.062.86 1.574c.27.513.514.95.543.974.028.023.098.138.156.254s.294.555.526.974c.54.977.932 1.77.932 1.885 0 .05.034.103.074.118.095.036.603 1.123.603 1.29 0 .07.033.146.073.17.065.04.988 1.863 1.45 2.863.1.22.156.449.121.508-.034.06-.03.08.007.046.093-.084.468.698 1.229 2.56.454 1.11.592 1.433.851 1.99.087.186.265.662.396 1.058.13.396.274.777.318.847.095.15.61 1.606 1.034 2.92.165.513.332 1.008.37 1.101.126.302.583 1.668.892 2.667.165.536.336 1.01.379 1.054s.077.18.077.301.036.256.079.3c.167.17.434 1.453.437 2.094.004 1.018-.25 1.382-1.235 1.773a28 28 0 0 0-1.059.468c-1.007.469-3.597 1.461-3.812 1.461a.6.6 0 0 0-.232.086c-.186.11-1.392.543-2.221.8a97 97 0 0 0-2.117.706c-.815.281-1.958.65-2.54.82a27 27 0 0 0-1.354.426c-.385.15-1.556.497-2.413.715-.373.094-.96.248-1.307.341-.642.174-1.17.2-1.7.087zm1.477-11.175c.98-.046 2.716-.122 3.857-.17 1.14-.049 2.398-.106 2.794-.128s1.615-.08 2.71-.13a163 163 0 0 0 3.137-.17c.63-.045 1.4-.082 1.707-.082.662 0 .828-.05.828-.253 0-.38-2.006-5.882-2.84-7.79l-1.184-2.71c-.295-.673-.844-1.913-1.313-2.963a72 72 0 0 0-1.102-2.244l-1.397-2.751a48 48 0 0 0-1.113-2.058 22 22 0 0 1-.534-.943c0-.078-1.568-2.712-2.842-4.773l-.278-.45-.55 1.127c-.302.62-.822 1.638-1.153 2.262s-.836 1.596-1.12 2.16c-.284.563-.886 1.729-1.339 2.59-.452.862-1.346 2.576-1.988 3.81a782 782 0 0 1-1.948 3.725c-.43.815-1.231 2.358-1.78 3.43l-1.798 3.513c-.44.862-.927 1.795-1.08 2.074-1.315 2.4-1.332 2.463-.655 2.485.616.02 5.301.335 6.371.428 1.165.101 2.583.104 4.61.01m-1.985-18.756a.042.042 0 0 1 .084 0 .042.042 0 0 1-.084 0M93.87 76.275c.558-.49 1.694-1.46 2.525-2.16a350 350 0 0 0 3.683-3.141c.24-.207 1.826-1.554 2.58-2.192.52-.44.673-.57 3.311-2.785.881-.74 1.64-1.387 1.688-1.44.047-.05.37-.34.72-.643.348-.303.71-.62.803-.706s.493-.428.89-.761a503 503 0 0 0 1.862-1.582c.628-.536 1.486-1.26 1.905-1.609s.78-.656.804-.683c.023-.026.995-.862 2.16-1.857 1.163-.995 2.135-1.83 2.158-1.857s.612-.524 1.309-1.106a90 90 0 0 0 1.522-1.29c.14-.129.284-.234.32-.234s.066-.035.066-.078c0-.116-.28-.156-2.455-.345-1.97-.173-7.771-.726-8.424-.804a281 281 0 0 0-3.98-.422c-.186-.02-1.234-.114-2.328-.211a380 380 0 0 1-7.07-.682c-.838-.091-1.733-.186-1.99-.211a41 41 0 0 1-.804-.087 142 142 0 0 0-2.328-.21l-3.006-.256c-.558-.048-2.692-.26-4.74-.472-2.05-.212-4.012-.41-4.361-.443l-.635-.058 1.587 3.177c.873 1.747 1.7 3.443 1.838 3.77.138.325.466 1.068.728 1.65s.565 1.287.672 1.567.348.832.536 1.227c.386.811 1.729 4.028 2.086 4.996.129.349.367.978.53 1.397a140 140 0 0 1 2.011 5.503c.642 1.875 2.059 6.117 2.13 6.378.034.121-.008.154 1.697-1.34m34.318-26.628a.04.04 0 0 0-.043-.042.042.042 0 0 0 0 .084.04.04 0 0 0 .043-.042M72.644 39.152a.04.04 0 0 0-.042-.042.04.04 0 0 0-.042.042c0 .023.019.042.042.042s.042-.019.042-.042M43.727 83.058c-.662-.107-1.331-.662-1.792-1.488l-.236-.423-.023-9.356c-.03-12.296-.143-11.735 2.563-12.694 4.225-1.498 5.783-1.987 6.03-1.892.197.075.253.284.525 1.928.147.885.435 2.314.641 3.175.206.862.453 2.005.548 2.54.287 1.609.516 2.806.646 3.371.208.902.78 3.831.88 4.503.05.35.148.826.214 1.059s.136.556.154.72c.018.162.056.353.083.423.084.218.386 1.46.473 1.947l.261 1.482c.196 1.116.458 2.385.632 3.058.165.638-.385.778-3.933 1.004-.442.028-1.052.085-1.355.127a24 24 0 0 1-1.354.127c-1.15.074-2.559.202-3.345.302-1.054.135-1.245.146-1.612.087m14.592-1.332c-.167-.046-.272-.352-.403-1.172a94 94 0 0 0-.38-2.074 60 60 0 0 1-.344-1.905 3.4 3.4 0 0 0-.166-.684c-.06-.143-.247-1.02-.416-1.947a97 97 0 0 0-.473-2.45 47 47 0 0 1-.213-1.015 21 21 0 0 0-.286-1.317c-.22-.926-.236-1.01-.476-2.324a59 59 0 0 0-.372-1.863 14 14 0 0 1-.22-1.227 3.7 3.7 0 0 0-.129-.678c-.158-.424-.51-1.953-.598-2.598-.12-.888-.402-2.35-.543-2.82-.329-1.091-.251-1.388.396-1.512l2.27-.43c1-.19 2.236-.425 2.744-.524 2.02-.392 2.678-.075 4.23 2.042.78 1.064 1.863 2.612 2.042 2.919.093.16.537.892.987 1.628a70 70 0 0 1 3.884 7.264c.15.326.436.936.635 1.355.424.895 1.14 2.561 1.14 2.655 0 .036.083.234.183.44.259.533 1.23 3.46 1.35 4.066.273 1.39-.592 3.127-1.947 3.91l-.475.274-6.138.013c-3.376.007-6.203-.005-6.282-.026m59.114-45.96c0-.024.02-.043.042-.043a.043.043 0 0 1 0 .085.04.04 0 0 1-.042-.043m-.677-.424c0-.023.019-.042.042-.042a.042.042 0 0 1 0 .084.04.04 0 0 1-.042-.042m-.339-.17c0-.023.02-.042.042-.042a.043.043 0 0 1 0 .085.04.04 0 0 1-.042-.042m-.17-.084c0-.023.02-.042.043-.042a.042.042 0 0 1 0 .084.04.04 0 0 1-.042-.042m-.592-.339c0-.023.02-.042.042-.042a.043.043 0 0 1 0 .085.04.04 0 0 1-.042-.043m-.508-.254c0-.023.02-.042.042-.042a.043.043 0 0 1 0 .085.04.04 0 0 1-.042-.043m-.31-.183a.08.08 0 0 1 .113 0c.03.031.006.056-.057.056-.062 0-.087-.025-.056-.056m-.424-.254a.08.08 0 0 1 .113 0c.031.031.006.056-.056.056s-.088-.025-.057-.056m-.197-.07c0-.024.019-.043.042-.043a.043.043 0 0 1 0 .085.04.04 0 0 1-.042-.043m-.508-.17c0-.023.019-.042.042-.042a.042.042 0 0 1 0 .084.04.04 0 0 1-.042-.042m-.339-.085c0-.023.02-.042.042-.042a.043.043 0 0 1 0 .085.04.04 0 0 1-.042-.043m-.17-.084c0-.024.02-.043.043-.043a.043.043 0 0 1 0 .085.04.04 0 0 1-.042-.042m1.355-.17c0-.023.02-.042.043-.042a.043.043 0 0 1 0 .085.04.04 0 0 1-.043-.043m.233-.013a.33.33 0 0 1 .212 0c.058.023.01.042-.106.042s-.164-.019-.106-.042m-2.095-.071c0-.024.019-.043.042-.043a.043.043 0 0 1 0 .085.04.04 0 0 1-.042-.042m-.254-.085c0-.023.019-.042.042-.042a.042.042 0 0 1 0 .084.04.04 0 0 1-.042-.042m-.508-.17c0-.023.019-.042.042-.042a.043.043 0 0 1 0 .085.04.04 0 0 1-.042-.042m-.762-.253c0-.024.019-.043.042-.043a.043.043 0 0 1 0 .085.04.04 0 0 1-.042-.042m-.254-.085c0-.023.019-.042.042-.042a.042.042 0 0 1 0 .084.04.04 0 0 1-.042-.042m-.254-.085c0-.023.019-.042.042-.042a.043.043 0 0 1 0 .085.04.04 0 0 1-.042-.043m-.339-.084c0-.024.02-.043.042-.043a.043.043 0 0 1 0 .085.04.04 0 0 1-.042-.042m-.226-.1a.08.08 0 0 1 .113 0c.031.032.006.057-.056.057s-.088-.025-.057-.056m-.367-.07c0-.023.02-.042.043-.042a.043.043 0 0 1 0 .085.04.04 0 0 1-.043-.043m-.31-.098a.08.08 0 0 1 .113 0c.03.03.006.056-.056.056-.063 0-.088-.025-.057-.056m-59.267-6.774a.08.08 0 0 1 .113 0c.031.031.006.057-.056.057s-.088-.026-.057-.057m.295-.086c.061-.024.134-.021.162.007s-.022.048-.11.044c-.1-.004-.12-.024-.052-.05m.298-.083a.08.08 0 0 1 .113 0c.031.031.006.056-.057.056-.062 0-.087-.025-.056-.056m.339-.085a.08.08 0 0 1 .113 0c.03.031.005.057-.057.057s-.087-.026-.056-.057m.395-.07c0-.024.019-.043.042-.043s.042.02.042.043-.019.042-.042.042a.04.04 0 0 1-.042-.042m.62-.099a.08.08 0 0 1 .114 0c.03.031.005.056-.057.056s-.087-.025-.056-.056m.65-.07c0-.024.019-.043.042-.043s.042.02.042.042a.04.04 0 0 1-.042.043.04.04 0 0 1-.042-.043m.762-.085c0-.024.019-.043.042-.043s.042.02.042.043-.019.042-.042.042a.04.04 0 0 1-.042-.042"/></svg>